<?xml version="1.0" encoding="UTF-8" standalone="no"?>
<!-- Generator: Adobe Illustrator 17.1.0, SVG Export Plug-In . SVG Version: 6.00 Build 0)  -->

<svg
   xmlns:dc="http://purl.org/dc/elements/1.1/"
   xmlns:cc="http://creativecommons.org/ns#"
   xmlns:rdf="http://www.w3.org/1999/02/22-rdf-syntax-ns#"
   xmlns:svg="http://www.w3.org/2000/svg"
   xmlns="http://www.w3.org/2000/svg"
   xmlns:sodipodi="http://sodipodi.sourceforge.net/DTD/sodipodi-0.dtd"
   xmlns:inkscape="http://www.inkscape.org/namespaces/inkscape"
   version="1.1"
   x="0px"
   y="0px"
   viewBox="0 0 1919.8 1500.7999"
   enable-background="new 0 0 1919.8 5222.8"
   xml:space="preserve"
   id="svg2"
   inkscape:version="0.91 r13725"
   sodipodi:docname="workspace.svg"
   width="1919.8"
   height="1500.7998"><metadata
     id="metadata6917"><rdf:RDF><cc:Work
         rdf:about=""><dc:format>image/svg+xml</dc:format><dc:type
           rdf:resource="http://purl.org/dc/dcmitype/StillImage" /><dc:title></dc:title></cc:Work></rdf:RDF></metadata><defs
     id="defs6915" /><sodipodi:namedview
     pagecolor="#ffffff"
     bordercolor="#666666"
     borderopacity="0"
     objecttolerance="10"
     gridtolerance="10"
     guidetolerance="10"
     inkscape:pageopacity="0"
     inkscape:pageshadow="2"
     inkscape:window-width="1292"
     inkscape:window-height="838"
     id="namedview6913"
     showgrid="false"
     inkscape:zoom="0.1767767"
     inkscape:cx="868.97024"
     inkscape:cy="506.79879"
     inkscape:window-x="0"
     inkscape:window-y="0"
     inkscape:window-maximized="0"
     inkscape:current-layer="svg2" /><g
     id="tea"
     transform="translate(-1103.0866,425.5036)"><ellipse
       cx="1673.4"
       cy="846"
       rx="141"
       ry="147.10001"
       id="ellipse163"
       style="opacity:0.2" /><ellipse
       cx="1685.1"
       cy="841.70001"
       rx="141"
       ry="147.10001"
       id="ellipse165"
       style="fill:#e2e0df" /><ellipse
       cx="1686.1"
       cy="839.40002"
       rx="128.39999"
       ry="135.39999"
       id="ellipse167"
       style="fill:#d8d1d3" /><ellipse
       cx="1688.2"
       cy="841.70001"
       rx="94.5"
       ry="100"
       id="ellipse169"
       style="fill:#bbbaba" /><ellipse
       cx="1691.2"
       cy="839.40002"
       rx="92.400002"
       ry="90"
       id="ellipse171"
       style="fill:#afacac" /><path
       d="m 1810,826.4 c 0,0 2.1,11.3 -40.2,13 l 0,-5.8 c 0,0 9.6,-4.8 15.3,-5.8 0,0 14.6,-4.5 24.9,-1.4 z"
       id="path173"
       inkscape:connector-curvature="0"
       style="fill:#beb5b2" /><g
       id="g175"><g
         id="g177"><g
           id="g179"><path
             d="m 1800.6,826.4 c -8,0 -15.4,1.4 -15.4,1.4 -5.6,1 -15.3,5.8 -15.3,5.8 l 0,4.1 c 6.5,-0.4 20.7,-1.7 27.5,-6.4 -0.1,-0.1 2.2,-1.5 3.2,-4.9 z"
             id="path181"
             inkscape:connector-curvature="0"
             style="fill:#c3bbb9" /></g></g></g><path
       d="m 1782.7,829.3 c 0,0 -2.7,4.1 2.5,5.4 0,0 -9.2,0.9 -2.5,-5.4 z"
       id="path183"
       inkscape:connector-curvature="0"
       style="fill:#f3eeec" /><circle
       cx="1785.6"
       cy="832.90002"
       id="ellipse185"
       r="0.5"
       style="fill:#f3eeec" /><path
       d="m 1775.1,802.1 c 0,0 27.2,-7.1 32.8,0.8 0,0 15.8,20.1 -3.8,28.6 -19.6,8.5 0,0 0,0 l -26.7,-23.3 -2.3,-6.1"
       id="path187"
       inkscape:connector-curvature="0"
       style="fill:#aaa9a9" /><path
       d="m 1764,811.3 c 0,0 25.1,-8.7 38.5,-6.5 1,0.2 1.9,0.7 2.6,1.5 2.2,2.7 7.1,9.9 6.8,18.5 -0.1,2.8 -2.5,4.8 -5.2,4.4 -7.2,-1.1 -22.4,-2 -38.6,6.1 l -4.1,-24 z"
       id="path189"
       inkscape:connector-curvature="0"
       style="fill:#e2e0df" /><path
       d="m 1764.8,815.8 c 0,0 16.8,-9.3 30.6,-7.3 2.3,0.3 4.5,0.9 5.9,2.9 1.3,1.9 3,4.3 4,7.2 1.3,3.6 -1.3,7.5 -5,7.7 -7.4,0.5 -17.9,-0.7 -32.5,6.6 l -3,-17.1 z"
       id="path191"
       inkscape:connector-curvature="0"
       style="fill:#dbd8d6" /><path
       d="m 1764.8,815.8 2.6,-1.3 c 1.5,-0.7 3.2,0.2 3.6,1.9 0.8,3.8 2.4,10.2 4.4,15.8 l -7.3,3.1 -3.3,-19.5 z"
       id="path193"
       inkscape:connector-curvature="0"
       style="fill:#d5ccc8" /><path
       d="m 1788.7,826.1 7.5,0.6 c 1.9,0.2 3.2,-1.2 2.5,-2.5 l 0,0 c -0.5,-1 -2,-1.4 -3.3,-1.1 l -6.9,2 c -0.8,0.2 -0.6,0.9 0.2,1 z"
       id="path195"
       inkscape:connector-curvature="0"
       style="fill:#fcfdff" /><ellipse
       cx="1685.1"
       cy="841.70001"
       rx="85.699997"
       ry="89.400002"
       id="ellipse197"
       style="fill:#e5e5e4" /><ellipse
       cx="1685.1"
       cy="841.70001"
       rx="75.800003"
       ry="81.099998"
       id="ellipse199"
       style="fill:#bfb1ae" /><ellipse
       cx="1685.1"
       cy="841.70001"
       rx="73.300003"
       ry="76.400002"
       id="ellipse201"
       style="fill:#a9572d" /><ellipse
       cx="1685.1"
       cy="841.70001"
       rx="66.099998"
       ry="68.900002"
       id="ellipse203"
       style="fill:#af5d2e" /><path
       d="m 1636.3,792.5 c 0,0 16.6,-17.3 31.9,-20.1 -0.1,0 -22.3,4.4 -31.9,20.1 z"
       id="path205"
       inkscape:connector-curvature="0"
       style="fill:#f0c0ac" /><path
       d="m 1743.4,803.2 c 0.9,1.7 2.3,4.6 4.3,9.3 0.2,0.5 -0.4,0.9 -0.7,0.4 l -8.4,-12 c 0,0 0,-0.1 0,-0.1 l 0.8,0 c 1.7,0 3.2,0.9 4,2.4 z"
       id="path207"
       inkscape:connector-curvature="0"
       style="fill:#f0c0ac" /><path
       d="m 1748.6,817.3 c 0,0.2 0.1,0.3 0.1,0.5 0.3,1.2 2.1,0.8 1.8,-0.4 -0.1,-0.5 -0.4,-1.1 -1,-1.5 l 0,0 c -0.6,0.2 -1,0.8 -0.9,1.4 z"
       id="path209"
       inkscape:connector-curvature="0"
       style="fill:#f0c0ac" /><path
       d="m 1623.3,841.7 c 0,0 4,-33 28,-51.1 2.8,-2.1 5.9,-3.8 9.1,-5 8.7,-3.3 28.4,-8.9 49.6,-3.2 0,0 -15.2,-5.7 -34.4,-3.6 -18.6,2.1 -35.2,13.4 -43.8,30.8 -4.1,8.2 -7.5,18.8 -8.5,32.1 z"
       id="path211"
       inkscape:connector-curvature="0"
       style="fill:#bb724d" /><path
       d="m 1658.3,904.9 c 0,0 30.1,11 56.3,-3.4 3.1,-1.7 5.9,-3.8 8.4,-6.3 6.7,-6.7 20.2,-22.5 24.8,-44.8 0,0 -1.8,16.7 -12.3,33.8 -10.1,16.5 -27.2,26.9 -46,27.2 -8.8,0 -19.3,-1.5 -31.2,-6.5 z"
       id="path213"
       inkscape:connector-curvature="0"
       style="fill:#bb724d" /><path
       d="m 1718,760.6 c 0,0 21.6,9.9 33.2,27.2 0,0 -6,-18.4 -33.2,-27.2 z"
       id="path215"
       inkscape:connector-curvature="0"
       style="fill:#fdf7fa" /><path
       d="m 1644.4,767.1 c 0,0 -20.5,12.2 -30.3,30.6 0,0.1 4.1,-18.8 30.3,-30.6 z"
       id="path217"
       inkscape:connector-curvature="0"
       style="fill:#fdf7fa" /><path
       d="m 1652.9,920.6 c 0,0 -21.6,-9.9 -33.2,-27.2 -0.1,0 5.9,18.3 33.2,27.2 z"
       id="path219"
       inkscape:connector-curvature="0"
       style="fill:#fdf7fa" /><path
       d="m 1729.3,915.4 c 0,0 19.5,-13.9 27.8,-33.1 0,-0.1 -2.6,19.1 -27.8,33.1 z"
       id="path221"
       inkscape:connector-curvature="0"
       style="fill:#fdf7fa" /><path
       d="m 1572.5,922.8 c 0,0 30.9,41.6 56.8,47.8 0,0 -39.9,-9.4 -56.8,-47.8 z"
       id="path223"
       inkscape:connector-curvature="0"
       style="fill:#fdf7fa" /><path
       d="m 1799.2,920.6 c 0,0 -30.9,41.6 -56.8,47.8 0,0 39.9,-9.4 56.8,-47.8 z"
       id="path225"
       inkscape:connector-curvature="0"
       style="fill:#fdf7fa" /><path
       d="m 1572.5,758.4 c 0,0 30.9,-41.6 56.8,-47.8 0,0 -39.9,9.4 -56.8,47.8 z"
       id="path227"
       inkscape:connector-curvature="0"
       style="fill:#fdf7fa" /><path
       d="m 1799.2,760.6 c 0,0 -30.9,-41.6 -56.8,-47.8 0,0 39.9,9.4 56.8,47.8 z"
       id="path229"
       inkscape:connector-curvature="0"
       style="fill:#fdf7fa" /></g><g
     id="mouse_1_"
     transform="translate(-101.82338,-77.956404)"><g
       id="g232"><g
         id="g234"
         style="opacity:0.21000001"><path
           d="m 1353.1,951.3 0.1,-133.3 c 0,0 1,-37.9 57.4,-36.2 l -0.1,200.8 c 0,0 -53.1,5.4 -57.4,-31.3 z"
           id="path236"
           inkscape:connector-curvature="0" /><path
           d="m 1464,951.4 0.1,-133.3 c 0,0 -0.9,-37.9 -57.4,-36.3 l -0.1,200.8 c 0,0 50.5,6 57.4,-31.2 z"
           id="path238"
           inkscape:connector-curvature="0" /></g><g
         id="g240"><path
           d="m 1366,948.4 0.1,-133.3 c 0,0 0.9,-37.9 51.2,-36.2 l -0.1,200.8 c -0.1,0 -47.4,5.4 -51.2,-31.3 z"
           id="path242"
           inkscape:connector-curvature="0"
           style="fill:#efeeee" /><path
           d="m 1464.8,948.5 0.1,-133.3 c 0,0 -0.8,-37.9 -51.1,-36.3 l -0.1,200.8 c 0,0 44.9,6 51.1,-31.2 z"
           id="path244"
           inkscape:connector-curvature="0"
           style="fill:#efeeee" /></g></g><g
       id="g246"><path
         d="m 1381.7,948.4 0.1,-133.3 c 0,0 0.6,-37.9 36.7,-36.2 l -0.1,200.8 c -0.1,0 -33.9,5.4 -36.7,-31.3 z"
         id="path248"
         inkscape:connector-curvature="0"
         style="fill:#fffdfd" /><path
         d="m 1452.5,948.4 0.1,-133.3 c 0,0 -0.6,-37.9 -36.6,-36.3 l -0.1,200.8 c 0,0.1 32.2,6.1 36.6,-31.2 z"
         id="path250"
         inkscape:connector-curvature="0"
         style="fill:#fffdfd" /></g></g><g
     id="keyboard"
     transform="translate(-64.815628,26.245796)"><path
       d="m 1259.5,846 -583,0 0,-21.1 c 0,-6.7 5.3,-12.2 11.8,-12.2 l 551.8,0 c 10.7,0 19.4,9 19.4,20.1 l 0,13.2 z"
       id="path253"
       inkscape:connector-curvature="0"
       style="opacity:0.18999999" /><path
       d="m 1246.4,1087.1 -550.2,0 c -10.9,0 -19.7,-8.2 -19.7,-18.4 l 0,-221.7 c 0,-0.6 0.5,-1 1,-1 l 580.3,0 c 0.9,0 1.7,0.7 1.7,1.7 l 0,227.1 c 0,6.8 -5.8,12.3 -13.1,12.3 z"
       id="path255"
       inkscape:connector-curvature="0"
       style="opacity:0.18999999" /><path
       d="m 1269.6,843.2 -578.4,0 0,-21.2 c 0,-6.7 5.2,-12.2 11.7,-12.2 l 547.5,0 c 10.6,0 19.3,9 19.3,20.1 l 0,13.3 z"
       id="path257"
       inkscape:connector-curvature="0"
       style="fill:#b6b6b6" /><path
       d="m 1250.3,809.8 -547.5,0 c -5.3,0 -9.8,3.7 -11.2,8.8 l 574.6,0 c -3.4,-5.3 -9.2,-8.8 -15.9,-8.8 z"
       id="path259"
       inkscape:connector-curvature="0"
       style="fill:#949394" /><polygon
       points="1264.6,816.4 693.1,815.3 691.2,822 1268,822 "
       id="polygon261"
       style="fill:#cdc9c9" /><path
       d="m 1256.6,1080.6 -545.9,0 c -10.8,0 -19.5,-8.7 -19.5,-19.4 l 0,-233.1 c 0,-0.9 0.7,-1.6 1.6,-1.6 l 574.6,0 c 1.2,0 2.2,1 2.2,2.3 l 0,238.9 c 0,7.1 -5.8,12.9 -13,12.9 z"
       id="path263"
       inkscape:connector-curvature="0"
       style="fill:#e2dfdf" /><path
       d="m 737.1,871.3 -29.6,0 c -1.1,0 -2.1,-0.7 -2.1,-1.7 l 0,-13.4 c 0,-0.9 0.9,-1.7 2.1,-1.7 l 29.6,0 c 1.1,0 2.1,0.7 2.1,1.7 l 0,13.4 c 0,1 -1,1.7 -2.1,1.7 z"
       id="path265"
       inkscape:connector-curvature="0"
       style="fill:#bfbebe" /><path
       d="m 1255.7,871.3 -29.6,0 c -1.1,0 -2.1,-0.7 -2.1,-1.7 l 0,-13.4 c 0,-0.9 0.9,-1.7 2.1,-1.7 l 29.6,0 c 1.1,0 2.1,0.7 2.1,1.7 l 0,13.4 c 0,1 -1,1.7 -2.1,1.7 z"
       id="path267"
       inkscape:connector-curvature="0"
       style="fill:#bfbebe" /><path
       d="m 1214.6,871.3 -29.6,0 c -1.1,0 -2.1,-0.7 -2.1,-1.7 l 0,-13.4 c 0,-0.9 0.9,-1.7 2.1,-1.7 l 29.6,0 c 1.1,0 2.1,0.7 2.1,1.7 l 0,13.4 c -0.1,1 -1,1.7 -2.1,1.7 z"
       id="path269"
       inkscape:connector-curvature="0"
       style="fill:#bfbebe" /><path
       d="m 1175.5,871.3 -29.6,0 c -1.1,0 -2.1,-0.7 -2.1,-1.7 l 0,-13.4 c 0,-0.9 0.9,-1.7 2.1,-1.7 l 29.6,0 c 1.1,0 2.1,0.7 2.1,1.7 l 0,13.4 c 0,1 -0.9,1.7 -2.1,1.7 z"
       id="path271"
       inkscape:connector-curvature="0"
       style="fill:#bfbebe" /><path
       d="m 1136,871.3 -29.6,0 c -1.1,0 -2.1,-0.7 -2.1,-1.7 l 0,-13.4 c 0,-0.9 0.9,-1.7 2.1,-1.7 l 29.6,0 c 1.1,0 2.1,0.7 2.1,1.7 l 0,13.4 c 0,1 -1,1.7 -2.1,1.7 z"
       id="path273"
       inkscape:connector-curvature="0"
       style="fill:#bfbebe" /><path
       d="m 1095.8,871.3 -29.6,0 c -1.1,0 -2.1,-0.7 -2.1,-1.7 l 0,-13.4 c 0,-0.9 0.9,-1.7 2.1,-1.7 l 29.6,0 c 1.1,0 2.1,0.7 2.1,1.7 l 0,13.4 c -0.1,1 -1,1.7 -2.1,1.7 z"
       id="path275"
       inkscape:connector-curvature="0"
       style="fill:#bfbebe" /><path
       d="m 1056.7,871.3 -29.6,0 c -1.1,0 -2.1,-0.7 -2.1,-1.7 l 0,-13.4 c 0,-0.9 0.9,-1.7 2.1,-1.7 l 29.6,0 c 1.1,0 2.1,0.7 2.1,1.7 l 0,13.4 c 0,1 -0.9,1.7 -2.1,1.7 z"
       id="path277"
       inkscape:connector-curvature="0"
       style="fill:#bfbebe" /><path
       d="m 1017.2,871.3 -29.6,0 c -1.1,0 -2.1,-0.7 -2.1,-1.7 l 0,-13.4 c 0,-0.9 0.9,-1.7 2.1,-1.7 l 29.6,0 c 1.1,0 2.1,0.7 2.1,1.7 l 0,13.4 c 0,1 -0.9,1.7 -2.1,1.7 z"
       id="path279"
       inkscape:connector-curvature="0"
       style="fill:#bfbebe" /><path
       d="m 977.4,871.3 -29.6,0 c -1.1,0 -2.1,-0.7 -2.1,-1.7 l 0,-13.4 c 0,-0.9 0.9,-1.7 2.1,-1.7 l 29.6,0 c 1.1,0 2.1,0.7 2.1,1.7 l 0,13.4 c -0.1,1 -1,1.7 -2.1,1.7 z"
       id="path281"
       inkscape:connector-curvature="0"
       style="fill:#bfbebe" /><path
       d="m 936.6,871.3 -29.6,0 c -1.1,0 -2.1,-0.7 -2.1,-1.7 l 0,-13.4 c 0,-0.9 0.9,-1.7 2.1,-1.7 l 29.6,0 c 1.1,0 2.1,0.7 2.1,1.7 l 0,13.4 c 0,1 -0.9,1.7 -2.1,1.7 z"
       id="path283"
       inkscape:connector-curvature="0"
       style="fill:#bfbebe" /><path
       d="m 897.2,871.3 -29.6,0 c -1.1,0 -2.1,-0.7 -2.1,-1.7 l 0,-13.4 c 0,-0.9 0.9,-1.7 2.1,-1.7 l 29.6,0 c 1.1,0 2.1,0.7 2.1,1.7 l 0,13.4 c -0.1,1 -1,1.7 -2.1,1.7 z"
       id="path285"
       inkscape:connector-curvature="0"
       style="fill:#bfbebe" /><path
       d="m 856.5,871.3 -29.6,0 c -1.1,0 -2.1,-0.7 -2.1,-1.7 l 0,-13.4 c 0,-0.9 0.9,-1.7 2.1,-1.7 l 29.6,0 c 1.1,0 2.1,0.7 2.1,1.7 l 0,13.4 c -0.1,1 -1,1.7 -2.1,1.7 z"
       id="path287"
       inkscape:connector-curvature="0"
       style="fill:#bfbebe" /><path
       d="m 816.2,871.3 -29.6,0 c -1.1,0 -2.1,-0.7 -2.1,-1.7 l 0,-13.4 c 0,-0.9 0.9,-1.7 2.1,-1.7 l 29.6,0 c 1.1,0 2.1,0.7 2.1,1.7 l 0,13.4 c -0.1,1 -1,1.7 -2.1,1.7 z"
       id="path289"
       inkscape:connector-curvature="0"
       style="fill:#bfbebe" /><path
       d="m 776.7,871.3 -29.6,0 c -1.1,0 -2.1,-0.7 -2.1,-1.7 l 0,-13.4 c 0,-0.9 0.9,-1.7 2.1,-1.7 l 29.6,0 c 1.1,0 2.1,0.7 2.1,1.7 l 0,13.4 c -0.1,1 -1,1.7 -2.1,1.7 z"
       id="path291"
       inkscape:connector-curvature="0"
       style="fill:#bfbebe" /><path
       d="m 727.6,908.5 -20.1,0 c -2.4,0 -4.3,-2 -4.3,-4.5 l 0,-20.1 c 0,-2.5 1.9,-4.5 4.3,-4.5 l 20.1,0 c 2.4,0 4.3,2 4.3,4.5 l 0,20.1 c 0,2.5 -1.9,4.5 -4.3,4.5 z"
       id="path293"
       inkscape:connector-curvature="0"
       style="fill:#bfbebe" /><path
       d="m 764.9,908.5 -20.1,0 c -2.4,0 -4.3,-2 -4.3,-4.5 l 0,-20.1 c 0,-2.5 1.9,-4.5 4.3,-4.5 l 20.1,0 c 2.4,0 4.3,2 4.3,4.5 l 0,20.1 c 0,2.5 -1.9,4.5 -4.3,4.5 z"
       id="path295"
       inkscape:connector-curvature="0"
       style="fill:#bfbebe" /><path
       d="m 1193,908.5 -20.1,0 c -2.4,0 -4.3,-2 -4.3,-4.5 l 0,-20.1 c 0,-2.5 1.9,-4.5 4.3,-4.5 l 20.1,0 c 2.4,0 4.3,2 4.3,4.5 l 0,20.1 c 0,2.5 -1.9,4.5 -4.3,4.5 z"
       id="path297"
       inkscape:connector-curvature="0"
       style="fill:#bfbebe" /><path
       d="m 1153.7,908.5 -20.1,0 c -2.4,0 -4.3,-2 -4.3,-4.5 l 0,-20.1 c 0,-2.5 1.9,-4.5 4.3,-4.5 l 20.1,0 c 2.4,0 4.3,2 4.3,4.5 l 0,20.1 c 0,2.5 -2,4.5 -4.3,4.5 z"
       id="path299"
       inkscape:connector-curvature="0"
       style="fill:#bfbebe" /><path
       d="m 1114.3,908.5 -20.1,0 c -2.4,0 -4.3,-2 -4.3,-4.5 l 0,-20.1 c 0,-2.5 1.9,-4.5 4.3,-4.5 l 20.1,0 c 2.4,0 4.3,2 4.3,4.5 l 0,20.1 c 0,2.5 -1.9,4.5 -4.3,4.5 z"
       id="path301"
       inkscape:connector-curvature="0"
       style="fill:#bfbebe" /><path
       d="m 1077.1,908.5 -20.1,0 c -2.4,0 -4.3,-2 -4.3,-4.5 l 0,-20.1 c 0,-2.5 1.9,-4.5 4.3,-4.5 l 20.1,0 c 2.4,0 4.3,2 4.3,4.5 l 0,20.1 c 0,2.5 -2,4.5 -4.3,4.5 z"
       id="path303"
       inkscape:connector-curvature="0"
       style="fill:#bfbebe" /><path
       d="m 1038.2,908.5 -20.1,0 c -2.4,0 -4.3,-2 -4.3,-4.5 l 0,-20.1 c 0,-2.5 1.9,-4.5 4.3,-4.5 l 20.1,0 c 2.4,0 4.3,2 4.3,4.5 l 0,20.1 c 0,2.5 -2,4.5 -4.3,4.5 z"
       id="path305"
       inkscape:connector-curvature="0"
       style="fill:#bfbebe" /><path
       d="m 998.8,908.5 -20.1,0 c -2.4,0 -4.3,-2 -4.3,-4.5 l 0,-20.1 c 0,-2.5 1.9,-4.5 4.3,-4.5 l 20.1,0 c 2.4,0 4.3,2 4.3,4.5 l 0,20.1 c 0,2.5 -1.9,4.5 -4.3,4.5 z"
       id="path307"
       inkscape:connector-curvature="0"
       style="fill:#bfbebe" /><path
       d="m 959.1,908.5 -20.1,0 c -2.4,0 -4.3,-2 -4.3,-4.5 l 0,-20.1 c 0,-2.5 1.9,-4.5 4.3,-4.5 l 20.1,0 c 2.4,0 4.3,2 4.3,4.5 l 0,20.1 c 0,2.5 -1.9,4.5 -4.3,4.5 z"
       id="path309"
       inkscape:connector-curvature="0"
       style="fill:#bfbebe" /><path
       d="m 918.5,908.5 -20.1,0 c -2.4,0 -4.3,-2 -4.3,-4.5 l 0,-20.1 c 0,-2.5 1.9,-4.5 4.3,-4.5 l 20.1,0 c 2.4,0 4.3,2 4.3,4.5 l 0,20.1 c 0,2.5 -1.9,4.5 -4.3,4.5 z"
       id="path311"
       inkscape:connector-curvature="0"
       style="fill:#bfbebe" /><path
       d="m 879.2,908.5 -20.1,0 c -2.4,0 -4.3,-2 -4.3,-4.5 l 0,-20.1 c 0,-2.5 1.9,-4.5 4.3,-4.5 l 20.1,0 c 2.4,0 4.3,2 4.3,4.5 l 0,20.1 c 0,2.5 -1.9,4.5 -4.3,4.5 z"
       id="path313"
       inkscape:connector-curvature="0"
       style="fill:#bfbebe" /><path
       d="m 802.2,908.5 -20.1,0 c -2.4,0 -4.3,-2 -4.3,-4.5 l 0,-20.1 c 0,-2.5 1.9,-4.5 4.3,-4.5 l 20.1,0 c 2.4,0 4.3,2 4.3,4.5 l 0,20.1 c 0,2.5 -1.9,4.5 -4.3,4.5 z"
       id="path315"
       inkscape:connector-curvature="0"
       style="fill:#bfbebe" /><path
       d="m 841.1,908.5 -20.1,0 c -2.4,0 -4.3,-2 -4.3,-4.5 l 0,-20.1 c 0,-2.5 1.9,-4.5 4.3,-4.5 l 20.1,0 c 2.4,0 4.3,2 4.3,4.5 l 0,20.1 c 0,2.5 -1.9,4.5 -4.3,4.5 z"
       id="path317"
       inkscape:connector-curvature="0"
       style="fill:#bfbebe" /><path
       d="m 1256.7,908.5 -45.1,0 c -1.8,0 -3.3,-1.4 -3.3,-3 l 0,-21.9 c 0,-1.7 1.5,-3 3.3,-3 l 45.1,0 c 1.8,0 3.3,1.4 3.3,3 l 0,21.9 c 0,1.7 -1.5,3 -3.3,3 z"
       id="path319"
       inkscape:connector-curvature="0"
       style="fill:#bfbebe" /><path
       d="m 1235.6,944.4 20.1,0 c 2.4,0 4.3,-2 4.3,-4.5 l 0,-20.1 c 0,-2.5 -1.9,-4.5 -4.3,-4.5 l -20.1,0 c -2.4,0 -4.3,2 -4.3,4.5 l 0,20.1 c 0,2.5 1.9,4.5 4.3,4.5 z"
       id="path321"
       inkscape:connector-curvature="0"
       style="fill:#bfbebe" /><path
       d="m 1198.3,944.4 20.1,0 c 2.4,0 4.3,-2 4.3,-4.5 l 0,-20.1 c 0,-2.5 -1.9,-4.5 -4.3,-4.5 l -20.1,0 c -2.4,0 -4.3,2 -4.3,4.5 l 0,20.1 c 0,2.5 1.9,4.5 4.3,4.5 z"
       id="path323"
       inkscape:connector-curvature="0"
       style="fill:#bfbebe" /><path
       d="m 770.2,944.4 20.1,0 c 2.4,0 4.3,-2 4.3,-4.5 l 0,-20.1 c 0,-2.5 -1.9,-4.5 -4.3,-4.5 l -20.1,0 c -2.4,0 -4.3,2 -4.3,4.5 l 0,20.1 c 0,2.5 1.9,4.5 4.3,4.5 z"
       id="path325"
       inkscape:connector-curvature="0"
       style="fill:#bfbebe" /><path
       d="m 809.5,944.4 20.1,0 c 2.4,0 4.3,-2 4.3,-4.5 l 0,-20.1 c 0,-2.5 -1.9,-4.5 -4.3,-4.5 l -20.1,0 c -2.4,0 -4.3,2 -4.3,4.5 l 0,20.1 c 0,2.5 2,4.5 4.3,4.5 z"
       id="path327"
       inkscape:connector-curvature="0"
       style="fill:#bfbebe" /><path
       d="m 848.9,944.4 20.1,0 c 2.4,0 4.3,-2 4.3,-4.5 l 0,-20.1 c 0,-2.5 -1.9,-4.5 -4.3,-4.5 l -20.1,0 c -2.4,0 -4.3,2 -4.3,4.5 l 0,20.1 c 0,2.5 1.9,4.5 4.3,4.5 z"
       id="path329"
       inkscape:connector-curvature="0"
       style="fill:#bfbebe" /><path
       d="m 886.1,944.4 20.1,0 c 2.4,0 4.3,-2 4.3,-4.5 l 0,-20.1 c 0,-2.5 -1.9,-4.5 -4.3,-4.5 l -20.1,0 c -2.4,0 -4.3,2 -4.3,4.5 l 0,20.1 c 0,2.5 2,4.5 4.3,4.5 z"
       id="path331"
       inkscape:connector-curvature="0"
       style="fill:#bfbebe" /><path
       d="m 925.1,944.4 20.1,0 c 2.4,0 4.3,-2 4.3,-4.5 l 0,-20.1 c 0,-2.5 -1.9,-4.5 -4.3,-4.5 l -20.1,0 c -2.4,0 -4.3,2 -4.3,4.5 l 0,20.1 c 0,2.5 1.9,4.5 4.3,4.5 z"
       id="path333"
       inkscape:connector-curvature="0"
       style="fill:#bfbebe" /><path
       d="m 964.4,944.4 20.1,0 c 2.4,0 4.3,-2 4.3,-4.5 l 0,-20.1 c 0,-2.5 -1.9,-4.5 -4.3,-4.5 l -20.1,0 c -2.4,0 -4.3,2 -4.3,4.5 l 0,20.1 c 0,2.5 1.9,4.5 4.3,4.5 z"
       id="path335"
       inkscape:connector-curvature="0"
       style="fill:#bfbebe" /><path
       d="m 1004.1,944.4 20.1,0 c 2.4,0 4.3,-2 4.3,-4.5 l 0,-20.1 c 0,-2.5 -1.9,-4.5 -4.3,-4.5 l -20.1,0 c -2.4,0 -4.3,2 -4.3,4.5 l 0,20.1 c 0,2.5 2,4.5 4.3,4.5 z"
       id="path337"
       inkscape:connector-curvature="0"
       style="fill:#bfbebe" /><path
       d="m 1044.7,944.4 20.1,0 c 2.4,0 4.3,-2 4.3,-4.5 l 0,-20.1 c 0,-2.5 -1.9,-4.5 -4.3,-4.5 l -20.1,0 c -2.4,0 -4.3,2 -4.3,4.5 l 0,20.1 c 0,2.5 1.9,4.5 4.3,4.5 z"
       id="path339"
       inkscape:connector-curvature="0"
       style="fill:#bfbebe" /><path
       d="m 1084,944.4 20.1,0 c 2.4,0 4.3,-2 4.3,-4.5 l 0,-20.1 c 0,-2.5 -1.9,-4.5 -4.3,-4.5 l -20.1,0 c -2.4,0 -4.3,2 -4.3,4.5 l 0,20.1 c 0,2.5 1.9,4.5 4.3,4.5 z"
       id="path341"
       inkscape:connector-curvature="0"
       style="fill:#bfbebe" /><path
       d="m 1161,944.4 20.1,0 c 2.4,0 4.3,-2 4.3,-4.5 l 0,-20.1 c 0,-2.5 -1.9,-4.5 -4.3,-4.5 l -20.1,0 c -2.4,0 -4.3,2 -4.3,4.5 l 0,20.1 c 0,2.5 2,4.5 4.3,4.5 z"
       id="path343"
       inkscape:connector-curvature="0"
       style="fill:#bfbebe" /><path
       d="m 1122.1,944.4 20.1,0 c 2.4,0 4.3,-2 4.3,-4.5 l 0,-20.1 c 0,-2.5 -1.9,-4.5 -4.3,-4.5 l -20.1,0 c -2.4,0 -4.3,2 -4.3,4.5 l 0,20.1 c 0,2.5 1.9,4.5 4.3,4.5 z"
       id="path345"
       inkscape:connector-curvature="0"
       style="fill:#bfbebe" /><path
       d="m 706.5,944.4 45.1,0 c 1.8,0 3.3,-1.4 3.3,-3 l 0,-21.9 c 0,-1.7 -1.5,-3 -3.3,-3 l -45.1,0 c -1.8,0 -3.3,1.4 -3.3,3 l 0,21.9 c 0.1,1.6 1.5,3 3.3,3 z"
       id="path347"
       inkscape:connector-curvature="0"
       style="fill:#bfbebe" /><path
       d="m 1193,983.1 -20.1,0 c -2.4,0 -4.3,-2 -4.3,-4.5 l 0,-20.1 c 0,-2.5 1.9,-4.5 4.3,-4.5 l 20.1,0 c 2.4,0 4.3,2 4.3,4.5 l 0,20.1 c 0,2.5 -1.9,4.5 -4.3,4.5 z"
       id="path349"
       inkscape:connector-curvature="0"
       style="fill:#bfbebe" /><path
       d="m 1153.7,983.1 -20.1,0 c -2.4,0 -4.3,-2 -4.3,-4.5 l 0,-20.1 c 0,-2.5 1.9,-4.5 4.3,-4.5 l 20.1,0 c 2.4,0 4.3,2 4.3,4.5 l 0,20.1 c 0,2.5 -2,4.5 -4.3,4.5 z"
       id="path351"
       inkscape:connector-curvature="0"
       style="fill:#bfbebe" /><path
       d="m 1114.3,983.1 -20.1,0 c -2.4,0 -4.3,-2 -4.3,-4.5 l 0,-20.1 c 0,-2.5 1.9,-4.5 4.3,-4.5 l 20.1,0 c 2.4,0 4.3,2 4.3,4.5 l 0,20.1 c 0,2.5 -1.9,4.5 -4.3,4.5 z"
       id="path353"
       inkscape:connector-curvature="0"
       style="fill:#bfbebe" /><path
       d="m 1077.1,983.1 -20.1,0 c -2.4,0 -4.3,-2 -4.3,-4.5 l 0,-20.1 c 0,-2.5 1.9,-4.5 4.3,-4.5 l 20.1,0 c 2.4,0 4.3,2 4.3,4.5 l 0,20.1 c 0,2.5 -2,4.5 -4.3,4.5 z"
       id="path355"
       inkscape:connector-curvature="0"
       style="fill:#bfbebe" /><path
       d="m 1038.2,983.1 -20.1,0 c -2.4,0 -4.3,-2 -4.3,-4.5 l 0,-20.1 c 0,-2.5 1.9,-4.5 4.3,-4.5 l 20.1,0 c 2.4,0 4.3,2 4.3,4.5 l 0,20.1 c 0,2.5 -2,4.5 -4.3,4.5 z"
       id="path357"
       inkscape:connector-curvature="0"
       style="fill:#bfbebe" /><path
       d="m 998.8,983.1 -20.1,0 c -2.4,0 -4.3,-2 -4.3,-4.5 l 0,-20.1 c 0,-2.5 1.9,-4.5 4.3,-4.5 l 20.1,0 c 2.4,0 4.3,2 4.3,4.5 l 0,20.1 c 0,2.5 -1.9,4.5 -4.3,4.5 z"
       id="path359"
       inkscape:connector-curvature="0"
       style="fill:#bfbebe" /><path
       d="m 959.1,983.1 -20.1,0 c -2.4,0 -4.3,-2 -4.3,-4.5 l 0,-20.1 c 0,-2.5 1.9,-4.5 4.3,-4.5 l 20.1,0 c 2.4,0 4.3,2 4.3,4.5 l 0,20.1 c 0,2.5 -1.9,4.5 -4.3,4.5 z"
       id="path361"
       inkscape:connector-curvature="0"
       style="fill:#bfbebe" /><path
       d="m 918.5,983.1 -20.1,0 c -2.4,0 -4.3,-2 -4.3,-4.5 l 0,-20.1 c 0,-2.5 1.9,-4.5 4.3,-4.5 l 20.1,0 c 2.4,0 4.3,2 4.3,4.5 l 0,20.1 c 0,2.5 -1.9,4.5 -4.3,4.5 z"
       id="path363"
       inkscape:connector-curvature="0"
       style="fill:#bfbebe" /><path
       d="m 879.2,983.1 -20.1,0 c -2.4,0 -4.3,-2 -4.3,-4.5 l 0,-20.1 c 0,-2.5 1.9,-4.5 4.3,-4.5 l 20.1,0 c 2.4,0 4.3,2 4.3,4.5 l 0,20.1 c 0,2.5 -1.9,4.5 -4.3,4.5 z"
       id="path365"
       inkscape:connector-curvature="0"
       style="fill:#bfbebe" /><path
       d="m 802.2,983.1 -20.1,0 c -2.4,0 -4.3,-2 -4.3,-4.5 l 0,-20.1 c 0,-2.5 1.9,-4.5 4.3,-4.5 l 20.1,0 c 2.4,0 4.3,2 4.3,4.5 l 0,20.1 c 0,2.5 -1.9,4.5 -4.3,4.5 z"
       id="path367"
       inkscape:connector-curvature="0"
       style="fill:#bfbebe" /><path
       d="m 841.1,983.1 -20.1,0 c -2.4,0 -4.3,-2 -4.3,-4.5 l 0,-20.1 c 0,-2.5 1.9,-4.5 4.3,-4.5 l 20.1,0 c 2.4,0 4.3,2 4.3,4.5 l 0,20.1 c 0,2.5 -1.9,4.5 -4.3,4.5 z"
       id="path369"
       inkscape:connector-curvature="0"
       style="fill:#bfbebe" /><path
       d="m 1256.7,983.1 -45.1,0 c -1.8,0 -3.3,-1.4 -3.3,-3 l 0,-21.9 c 0,-1.7 1.5,-3 3.3,-3 l 45.1,0 c 1.8,0 3.3,1.4 3.3,3 l 0,21.9 c 0,1.7 -1.5,3 -3.3,3 z"
       id="path371"
       inkscape:connector-curvature="0"
       style="fill:#bfbebe" /><path
       d="m 707.4,983.1 57.6,0 c 2.3,0 4.2,-1.4 4.2,-3.1 l 0,-22.8 c 0,-1.7 -1.9,-3.1 -4.2,-3.1 l -57.6,0 c -2.3,0 -4.2,1.4 -4.2,3.1 l 0,22.8 c 0.1,1.7 1.9,3.1 4.2,3.1 z"
       id="path373"
       inkscape:connector-curvature="0"
       style="fill:#bfbebe" /><path
       d="m 1166.8,1021.5 -20.1,0 c -2.4,0 -4.3,-2 -4.3,-4.5 l 0,-20.1 c 0,-2.5 1.9,-4.5 4.3,-4.5 l 20.1,0 c 2.4,0 4.3,2 4.3,4.5 l 0,20.1 c 0,2.5 -2,4.5 -4.3,4.5 z"
       id="path375"
       inkscape:connector-curvature="0"
       style="fill:#bfbebe" /><path
       d="m 1127.4,1021.5 -20.1,0 c -2.4,0 -4.3,-2 -4.3,-4.5 l 0,-20.1 c 0,-2.5 1.9,-4.5 4.3,-4.5 l 20.1,0 c 2.4,0 4.3,2 4.3,4.5 l 0,20.1 c 0,2.5 -1.9,4.5 -4.3,4.5 z"
       id="path377"
       inkscape:connector-curvature="0"
       style="fill:#bfbebe" /><path
       d="m 1090.2,1021.5 -20.1,0 c -2.4,0 -4.3,-2 -4.3,-4.5 l 0,-20.1 c 0,-2.5 1.9,-4.5 4.3,-4.5 l 20.1,0 c 2.4,0 4.3,2 4.3,4.5 l 0,20.1 c 0,2.5 -2,4.5 -4.3,4.5 z"
       id="path379"
       inkscape:connector-curvature="0"
       style="fill:#bfbebe" /><path
       d="m 1051.3,1021.5 -20.1,0 c -2.4,0 -4.3,-2 -4.3,-4.5 l 0,-20.1 c 0,-2.5 1.9,-4.5 4.3,-4.5 l 20.1,0 c 2.4,0 4.3,2 4.3,4.5 l 0,20.1 c 0,2.5 -2,4.5 -4.3,4.5 z"
       id="path381"
       inkscape:connector-curvature="0"
       style="fill:#bfbebe" /><path
       d="m 1011.9,1021.5 -20.1,0 c -2.4,0 -4.3,-2 -4.3,-4.5 l 0,-20.1 c 0,-2.5 1.9,-4.5 4.3,-4.5 l 20.1,0 c 2.4,0 4.3,2 4.3,4.5 l 0,20.1 c 0,2.5 -1.9,4.5 -4.3,4.5 z"
       id="path383"
       inkscape:connector-curvature="0"
       style="fill:#bfbebe" /><path
       d="m 972.2,1021.5 -20.1,0 c -2.4,0 -4.3,-2 -4.3,-4.5 l 0,-20.1 c 0,-2.5 1.9,-4.5 4.3,-4.5 l 20.1,0 c 2.4,0 4.3,2 4.3,4.5 l 0,20.1 c 0,2.5 -1.9,4.5 -4.3,4.5 z"
       id="path385"
       inkscape:connector-curvature="0"
       style="fill:#bfbebe" /><path
       d="m 931.6,1021.5 -20.1,0 c -2.4,0 -4.3,-2 -4.3,-4.5 l 0,-20.1 c 0,-2.5 1.9,-4.5 4.3,-4.5 l 20.1,0 c 2.4,0 4.3,2 4.3,4.5 l 0,20.1 c 0,2.5 -1.9,4.5 -4.3,4.5 z"
       id="path387"
       inkscape:connector-curvature="0"
       style="fill:#bfbebe" /><path
       d="m 892.3,1021.5 -20.1,0 c -2.4,0 -4.3,-2 -4.3,-4.5 l 0,-20.1 c 0,-2.5 1.9,-4.5 4.3,-4.5 l 20.1,0 c 2.4,0 4.3,2 4.3,4.5 l 0,20.1 c 0,2.5 -1.9,4.5 -4.3,4.5 z"
       id="path389"
       inkscape:connector-curvature="0"
       style="fill:#bfbebe" /><path
       d="m 815.3,1021.5 -20.1,0 c -2.4,0 -4.3,-2 -4.3,-4.5 l 0,-20.1 c 0,-2.5 1.9,-4.5 4.3,-4.5 l 20.1,0 c 2.4,0 4.3,2 4.3,4.5 l 0,20.1 c 0,2.5 -1.9,4.5 -4.3,4.5 z"
       id="path391"
       inkscape:connector-curvature="0"
       style="fill:#bfbebe" /><path
       d="m 854.2,1021.5 -20.1,0 c -2.4,0 -4.3,-2 -4.3,-4.5 l 0,-20.1 c 0,-2.5 1.9,-4.5 4.3,-4.5 l 20.1,0 c 2.4,0 4.3,2 4.3,4.5 l 0,20.1 c 0,2.5 -1.9,4.5 -4.3,4.5 z"
       id="path393"
       inkscape:connector-curvature="0"
       style="fill:#bfbebe" /><path
       d="m 708.3,1021.5 69.4,0 c 2.8,0 5,-1.4 5,-3.1 l 0,-22.8 c 0,-1.7 -2.3,-3.1 -5,-3.1 l -69.4,0 c -2.8,0 -5,1.4 -5,3.1 l 0,22.8 c 0,1.7 2.2,3.1 5,3.1 z"
       id="path395"
       inkscape:connector-curvature="0"
       style="fill:#bfbebe" /><path
       d="m 1184.4,1021.5 72.8,0 c 2.9,0 5.3,-1.4 5.3,-3.1 l 0,-22.8 c 0,-1.7 -2.4,-3.1 -5.3,-3.1 l -72.8,0 c -2.9,0 -5.3,1.4 -5.3,3.1 l 0,22.8 c 0,1.7 2.3,3.1 5.3,3.1 z"
       id="path397"
       inkscape:connector-curvature="0"
       style="fill:#bfbebe" /><path
       d="m 1058.2,1066.5 -185.1,0 c -2.2,0 -3.9,-1.8 -3.9,-4.1 l 0,-26 c 0,-2.2 1.7,-4.1 3.9,-4.1 l 185.2,0 c 2.2,0 3.9,1.8 3.9,4.1 l 0,26 c -0.1,2.3 -1.8,4.1 -4,4.1 z"
       id="path399"
       inkscape:connector-curvature="0"
       style="fill:#bfbebe" /><path
       d="m 1260.4,1066.2 -29.6,0 c -1.1,0 -2.1,-0.7 -2.1,-1.7 l 0,-13.4 c 0,-0.9 0.9,-1.7 2.1,-1.7 l 29.6,0 c 1.1,0 2.1,0.7 2.1,1.7 l 0,13.4 c -0.1,0.9 -1,1.7 -2.1,1.7 z"
       id="path401"
       inkscape:connector-curvature="0"
       style="fill:#bfbebe" /><path
       d="m 1185.9,1066.2 -29.6,0 c -1.1,0 -2.1,-0.7 -2.1,-1.7 l 0,-13.4 c 0,-0.9 0.9,-1.7 2.1,-1.7 l 29.6,0 c 1.1,0 2.1,0.7 2.1,1.7 l 0,13.4 c -0.1,0.9 -1,1.7 -2.1,1.7 z"
       id="path403"
       inkscape:connector-curvature="0"
       style="fill:#bfbebe" /><path
       d="m 772,1067.4 -25.1,0 c -2.2,0 -3.9,-1.8 -3.9,-4.1 l 0,-27.7 c 0,-2.3 1.8,-4.1 3.9,-4.1 l 25.1,0 c 2.2,0 3.9,1.8 3.9,4.1 l 0,27.7 c 0.1,2.3 -1.7,4.1 -3.9,4.1 z"
       id="path405"
       inkscape:connector-curvature="0"
       style="fill:#bfbebe" /><path
       d="m 811.8,1067.4 -25.1,0 c -2.2,0 -3.9,-1.8 -3.9,-4.1 l 0,-27.7 c 0,-2.3 1.8,-4.1 3.9,-4.1 l 25.1,0 c 2.2,0 3.9,1.8 3.9,4.1 l 0,27.7 c 0,2.3 -1.7,4.1 -3.9,4.1 z"
       id="path407"
       inkscape:connector-curvature="0"
       style="fill:#bfbebe" /><path
       d="m 1144.3,1067.4 -25.1,0 c -2.2,0 -3.9,-1.8 -3.9,-4.1 l 0,-27.7 c 0,-2.3 1.8,-4.1 3.9,-4.1 l 25.1,0 c 2.2,0 3.9,1.8 3.9,4.1 l 0,27.7 c 0,2.3 -1.7,4.1 -3.9,4.1 z"
       id="path409"
       inkscape:connector-curvature="0"
       style="fill:#bfbebe" /><path
       d="m 732.3,1067.4 -25.1,0 c -2.2,0 -3.9,-1.8 -3.9,-4.1 l 0,-27.7 c 0,-2.3 1.8,-4.1 3.9,-4.1 l 25.1,0 c 2.2,0 3.9,1.8 3.9,4.1 l 0,27.7 c 0,2.3 -1.7,4.1 -3.9,4.1 z"
       id="path411"
       inkscape:connector-curvature="0"
       style="fill:#bfbebe" /><path
       d="m 1220.9,1067.4 -25.1,0 c -2.2,0 -3.9,-1.8 -3.9,-4.1 l 0,-27.7 c 0,-2.3 1.8,-4.1 3.9,-4.1 l 25.1,0 c 2.2,0 3.9,1.8 3.9,4.1 l 0,27.7 c 0,2.3 -1.7,4.1 -3.9,4.1 z"
       id="path413"
       inkscape:connector-curvature="0"
       style="fill:#bfbebe" /><path
       d="m 857,1067.4 -30,0 c -2.6,0 -4.7,-1.8 -4.7,-4.1 l 0,-27.7 c 0,-2.3 2.1,-4.1 4.7,-4.1 l 30,0 c 2.6,0 4.7,1.8 4.7,4.1 l 0,27.7 c 0.1,2.3 -2,4.1 -4.7,4.1 z"
       id="path415"
       inkscape:connector-curvature="0"
       style="fill:#bfbebe" /><path
       d="m 1103.2,1067.4 -30.1,0 c -2.6,0 -4.7,-1.8 -4.7,-4.1 l 0,-27.7 c 0,-2.3 2.1,-4.1 4.7,-4.1 l 30.1,0 c 2.6,0 4.7,1.8 4.7,4.1 l 0,27.7 c 0,2.3 -2.1,4.1 -4.7,4.1 z"
       id="path417"
       inkscape:connector-curvature="0"
       style="fill:#bfbebe" /><path
       d="m 734.8,871.3 -29.6,0 c -1.1,0 -2.1,-0.7 -2.1,-1.7 l 0,-13.4 c 0,-0.9 0.9,-1.7 2.1,-1.7 l 29.6,0 c 1.1,0 2.1,0.7 2.1,1.7 l 0,13.4 c 0,1 -0.9,1.7 -2.1,1.7 z"
       id="path419"
       inkscape:connector-curvature="0"
       style="fill:#f4efef" /><path
       d="m 1253.4,871.3 -29.6,0 c -1.1,0 -2.1,-0.7 -2.1,-1.7 l 0,-13.4 c 0,-0.9 0.9,-1.7 2.1,-1.7 l 29.6,0 c 1.1,0 2.1,0.7 2.1,1.7 l 0,13.4 c 0,1 -0.9,1.7 -2.1,1.7 z"
       id="path421"
       inkscape:connector-curvature="0"
       style="fill:#f4efef" /><path
       d="m 1212.3,871.3 -29.6,0 c -1.1,0 -2.1,-0.7 -2.1,-1.7 l 0,-13.4 c 0,-0.9 0.9,-1.7 2.1,-1.7 l 29.6,0 c 1.1,0 2.1,0.7 2.1,1.7 l 0,13.4 c 0,1 -0.9,1.7 -2.1,1.7 z"
       id="path423"
       inkscape:connector-curvature="0"
       style="fill:#f4efef" /><path
       d="m 1173.3,871.3 -29.6,0 c -1.1,0 -2.1,-0.7 -2.1,-1.7 l 0,-13.4 c 0,-0.9 0.9,-1.7 2.1,-1.7 l 29.6,0 c 1.1,0 2.1,0.7 2.1,1.7 l 0,13.4 c -0.1,1 -1,1.7 -2.1,1.7 z"
       id="path425"
       inkscape:connector-curvature="0"
       style="fill:#f4efef" /><path
       d="m 1133.7,871.3 -29.6,0 c -1.1,0 -2.1,-0.7 -2.1,-1.7 l 0,-13.4 c 0,-0.9 0.9,-1.7 2.1,-1.7 l 29.6,0 c 1.1,0 2.1,0.7 2.1,1.7 l 0,13.4 c 0,1 -0.9,1.7 -2.1,1.7 z"
       id="path427"
       inkscape:connector-curvature="0"
       style="fill:#f4efef" /><path
       d="m 1093.5,871.3 -29.6,0 c -1.1,0 -2.1,-0.7 -2.1,-1.7 l 0,-13.4 c 0,-0.9 0.9,-1.7 2.1,-1.7 l 29.6,0 c 1.1,0 2.1,0.7 2.1,1.7 l 0,13.4 c 0,1 -0.9,1.7 -2.1,1.7 z"
       id="path429"
       inkscape:connector-curvature="0"
       style="fill:#f4efef" /><path
       d="m 1054.5,871.3 -29.6,0 c -1.1,0 -2.1,-0.7 -2.1,-1.7 l 0,-13.4 c 0,-0.9 0.9,-1.7 2.1,-1.7 l 29.6,0 c 1.1,0 2.1,0.7 2.1,1.7 l 0,13.4 c -0.1,1 -1,1.7 -2.1,1.7 z"
       id="path431"
       inkscape:connector-curvature="0"
       style="fill:#f4efef" /><path
       d="m 1015,871.3 -29.6,0 c -1.1,0 -2.1,-0.7 -2.1,-1.7 l 0,-13.4 c 0,-0.9 0.9,-1.7 2.1,-1.7 l 29.6,0 c 1.1,0 2.1,0.7 2.1,1.7 l 0,13.4 c -0.1,1 -1,1.7 -2.1,1.7 z"
       id="path433"
       inkscape:connector-curvature="0"
       style="fill:#f4efef" /><path
       d="m 975.1,871.3 -29.6,0 c -1.1,0 -2.1,-0.7 -2.1,-1.7 l 0,-13.4 c 0,-0.9 0.9,-1.7 2.1,-1.7 l 29.6,0 c 1.1,0 2.1,0.7 2.1,1.7 l 0,13.4 c 0,1 -1,1.7 -2.1,1.7 z"
       id="path435"
       inkscape:connector-curvature="0"
       style="fill:#f4efef" /><path
       d="m 934.4,871.3 -29.6,0 c -1.1,0 -2.1,-0.7 -2.1,-1.7 l 0,-13.4 c 0,-0.9 0.9,-1.7 2.1,-1.7 l 29.6,0 c 1.1,0 2.1,0.7 2.1,1.7 l 0,13.4 c -0.1,1 -1,1.7 -2.1,1.7 z"
       id="path437"
       inkscape:connector-curvature="0"
       style="fill:#f4efef" /><path
       d="m 894.9,871.3 -29.6,0 c -1.1,0 -2.1,-0.7 -2.1,-1.7 l 0,-13.4 c 0,-0.9 0.9,-1.7 2.1,-1.7 l 29.6,0 c 1.1,0 2.1,0.7 2.1,1.7 l 0,13.4 c 0,1 -0.9,1.7 -2.1,1.7 z"
       id="path439"
       inkscape:connector-curvature="0"
       style="fill:#f4efef" /><path
       d="m 854.2,871.3 -29.6,0 c -1.1,0 -2.1,-0.7 -2.1,-1.7 l 0,-13.4 c 0,-0.9 0.9,-1.7 2.1,-1.7 l 29.6,0 c 1.1,0 2.1,0.7 2.1,1.7 l 0,13.4 c 0,1 -1,1.7 -2.1,1.7 z"
       id="path441"
       inkscape:connector-curvature="0"
       style="fill:#f4efef" /><path
       d="m 813.9,871.3 -29.6,0 c -1.1,0 -2.1,-0.7 -2.1,-1.7 l 0,-13.4 c 0,-0.9 0.9,-1.7 2.1,-1.7 l 29.6,0 c 1.1,0 2.1,0.7 2.1,1.7 l 0,13.4 c 0,1 -1,1.7 -2.1,1.7 z"
       id="path443"
       inkscape:connector-curvature="0"
       style="fill:#f4efef" /><path
       d="m 774.4,871.3 -29.6,0 c -1.1,0 -2.1,-0.7 -2.1,-1.7 l 0,-13.4 c 0,-0.9 0.9,-1.7 2.1,-1.7 l 29.6,0 c 1.1,0 2.1,0.7 2.1,1.7 l 0,13.4 c 0,1 -0.9,1.7 -2.1,1.7 z"
       id="path445"
       inkscape:connector-curvature="0"
       style="fill:#f4efef" /><path
       d="m 725.4,908.5 -20.1,0 c -2.4,0 -4.3,-2 -4.3,-4.5 l 0,-20.1 c 0,-2.5 1.9,-4.5 4.3,-4.5 l 20.1,0 c 2.4,0 4.3,2 4.3,4.5 l 0,20.1 c 0,2.5 -1.9,4.5 -4.3,4.5 z"
       id="path447"
       inkscape:connector-curvature="0"
       style="fill:#f4efef" /><path
       d="m 762.7,908.5 -20.1,0 c -2.4,0 -4.3,-2 -4.3,-4.5 l 0,-20.1 c 0,-2.5 1.9,-4.5 4.3,-4.5 l 20.1,0 c 2.4,0 4.3,2 4.3,4.5 l 0,20.1 c 0,2.5 -2,4.5 -4.3,4.5 z"
       id="path449"
       inkscape:connector-curvature="0"
       style="fill:#f4efef" /><path
       d="m 1190.7,908.5 -20.1,0 c -2.4,0 -4.3,-2 -4.3,-4.5 l 0,-20.1 c 0,-2.5 1.9,-4.5 4.3,-4.5 l 20.1,0 c 2.4,0 4.3,2 4.3,4.5 l 0,20.1 c 0,2.5 -1.9,4.5 -4.3,4.5 z"
       id="path451"
       inkscape:connector-curvature="0"
       style="fill:#f4efef" /><path
       d="m 1151.4,908.5 -20.1,0 c -2.4,0 -4.3,-2 -4.3,-4.5 l 0,-20.1 c 0,-2.5 1.9,-4.5 4.3,-4.5 l 20.1,0 c 2.4,0 4.3,2 4.3,4.5 l 0,20.1 c 0,2.5 -1.9,4.5 -4.3,4.5 z"
       id="path453"
       inkscape:connector-curvature="0"
       style="fill:#f4efef" /><path
       d="m 1112.1,908.5 -20.1,0 c -2.4,0 -4.3,-2 -4.3,-4.5 l 0,-20.1 c 0,-2.5 1.9,-4.5 4.3,-4.5 l 20.1,0 c 2.4,0 4.3,2 4.3,4.5 l 0,20.1 c 0,2.5 -1.9,4.5 -4.3,4.5 z"
       id="path455"
       inkscape:connector-curvature="0"
       style="fill:#f4efef" /><path
       d="m 1074.8,908.5 -20.1,0 c -2.4,0 -4.3,-2 -4.3,-4.5 l 0,-20.1 c 0,-2.5 1.9,-4.5 4.3,-4.5 l 20.1,0 c 2.4,0 4.3,2 4.3,4.5 l 0,20.1 c 0,2.5 -1.9,4.5 -4.3,4.5 z"
       id="path457"
       inkscape:connector-curvature="0"
       style="fill:#f4efef" /><path
       d="m 1035.9,908.5 -20.1,0 c -2.4,0 -4.3,-2 -4.3,-4.5 l 0,-20.1 c 0,-2.5 1.9,-4.5 4.3,-4.5 l 20.1,0 c 2.4,0 4.3,2 4.3,4.5 l 0,20.1 c 0,2.5 -1.9,4.5 -4.3,4.5 z"
       id="path459"
       inkscape:connector-curvature="0"
       style="fill:#f4efef" /><path
       d="m 996.6,908.5 -20.1,0 c -2.4,0 -4.3,-2 -4.3,-4.5 l 0,-20.1 c 0,-2.5 1.9,-4.5 4.3,-4.5 l 20.1,0 c 2.4,0 4.3,2 4.3,4.5 l 0,20.1 c 0,2.5 -2,4.5 -4.3,4.5 z"
       id="path461"
       inkscape:connector-curvature="0"
       style="fill:#f4efef" /><path
       d="m 956.8,908.5 -20.1,0 c -2.4,0 -4.3,-2 -4.3,-4.5 l 0,-20.1 c 0,-2.5 1.9,-4.5 4.3,-4.5 l 20.1,0 c 2.4,0 4.3,2 4.3,4.5 l 0,20.1 c 0,2.5 -1.9,4.5 -4.3,4.5 z"
       id="path463"
       inkscape:connector-curvature="0"
       style="fill:#f4efef" /><path
       d="m 916.3,908.5 -20.1,0 c -2.4,0 -4.3,-2 -4.3,-4.5 l 0,-20.1 c 0,-2.5 1.9,-4.5 4.3,-4.5 l 20.1,0 c 2.4,0 4.3,2 4.3,4.5 l 0,20.1 c 0,2.5 -2,4.5 -4.3,4.5 z"
       id="path465"
       inkscape:connector-curvature="0"
       style="fill:#f4efef" /><path
       d="m 876.9,908.5 -20.1,0 c -2.4,0 -4.3,-2 -4.3,-4.5 l 0,-20.1 c 0,-2.5 1.9,-4.5 4.3,-4.5 l 20.1,0 c 2.4,0 4.3,2 4.3,4.5 l 0,20.1 c 0,2.5 -1.9,4.5 -4.3,4.5 z"
       id="path467"
       inkscape:connector-curvature="0"
       style="fill:#f4efef" /><path
       d="m 799.9,908.5 -20.1,0 c -2.4,0 -4.3,-2 -4.3,-4.5 l 0,-20.1 c 0,-2.5 1.9,-4.5 4.3,-4.5 l 20.1,0 c 2.4,0 4.3,2 4.3,4.5 l 0,20.1 c 0,2.5 -1.9,4.5 -4.3,4.5 z"
       id="path469"
       inkscape:connector-curvature="0"
       style="fill:#f4efef" /><path
       d="m 838.8,908.5 -20.1,0 c -2.4,0 -4.3,-2 -4.3,-4.5 l 0,-20.1 c 0,-2.5 1.9,-4.5 4.3,-4.5 l 20.1,0 c 2.4,0 4.3,2 4.3,4.5 l 0,20.1 c 0,2.5 -1.9,4.5 -4.3,4.5 z"
       id="path471"
       inkscape:connector-curvature="0"
       style="fill:#f4efef" /><path
       d="m 1254.4,908.5 -45.1,0 c -1.8,0 -3.3,-1.4 -3.3,-3 l 0,-21.9 c 0,-1.7 1.5,-3 3.3,-3 l 45.1,0 c 1.8,0 3.3,1.4 3.3,3 l 0,21.9 c 0,1.7 -1.5,3 -3.3,3 z"
       id="path473"
       inkscape:connector-curvature="0"
       style="fill:#f4efef" /><path
       d="m 1233.3,944.4 20.1,0 c 2.4,0 4.3,-2 4.3,-4.5 l 0,-20.1 c 0,-2.5 -1.9,-4.5 -4.3,-4.5 l -20.1,0 c -2.4,0 -4.3,2 -4.3,4.5 l 0,20.1 c 0,2.5 1.9,4.5 4.3,4.5 z"
       id="path475"
       inkscape:connector-curvature="0"
       style="fill:#f4efef" /><path
       d="m 1196,944.4 20.1,0 c 2.4,0 4.3,-2 4.3,-4.5 l 0,-20.1 c 0,-2.5 -1.9,-4.5 -4.3,-4.5 l -20.1,0 c -2.4,0 -4.3,2 -4.3,4.5 l 0,20.1 c 0,2.5 2,4.5 4.3,4.5 z"
       id="path477"
       inkscape:connector-curvature="0"
       style="fill:#f4efef" /><path
       d="m 768,944.4 20,0 c 2.4,0 4.3,-2 4.3,-4.5 l 0,-20.1 c 0,-2.5 -1.9,-4.5 -4.3,-4.5 l -20,0 c -2.4,0 -4.3,2 -4.3,4.5 l 0,20.1 c 0,2.5 1.9,4.5 4.3,4.5 z"
       id="path479"
       inkscape:connector-curvature="0"
       style="fill:#f4efef" /><path
       d="m 807.3,944.4 20.1,0 c 2.4,0 4.3,-2 4.3,-4.5 l 0,-20.1 c 0,-2.5 -1.9,-4.5 -4.3,-4.5 l -20.1,0 c -2.4,0 -4.3,2 -4.3,4.5 l 0,20.1 c 0,2.5 1.9,4.5 4.3,4.5 z"
       id="path481"
       inkscape:connector-curvature="0"
       style="fill:#f4efef" /><path
       d="m 846.6,944.4 20.1,0 c 2.4,0 4.3,-2 4.3,-4.5 l 0,-20.1 c 0,-2.5 -1.9,-4.5 -4.3,-4.5 l -20.1,0 c -2.4,0 -4.3,2 -4.3,4.5 l 0,20.1 c 0,2.5 1.9,4.5 4.3,4.5 z"
       id="path483"
       inkscape:connector-curvature="0"
       style="fill:#f4efef" /><path
       d="m 883.9,944.4 20.1,0 c 2.4,0 4.3,-2 4.3,-4.5 l 0,-20.1 c 0,-2.5 -1.9,-4.5 -4.3,-4.5 l -20.1,0 c -2.4,0 -4.3,2 -4.3,4.5 l 0,20.1 c 0,2.5 1.9,4.5 4.3,4.5 z"
       id="path485"
       inkscape:connector-curvature="0"
       style="fill:#f4efef" /><path
       d="m 922.8,944.4 20.1,0 c 2.4,0 4.3,-2 4.3,-4.5 l 0,-20.1 c 0,-2.5 -1.9,-4.5 -4.3,-4.5 l -20.1,0 c -2.4,0 -4.3,2 -4.3,4.5 l 0,20.1 c 0,2.5 1.9,4.5 4.3,4.5 z"
       id="path487"
       inkscape:connector-curvature="0"
       style="fill:#f4efef" /><path
       d="m 962.1,944.4 20.1,0 c 2.4,0 4.3,-2 4.3,-4.5 l 0,-20.1 c 0,-2.5 -1.9,-4.5 -4.3,-4.5 l -20.1,0 c -2.4,0 -4.3,2 -4.3,4.5 l 0,20.1 c 0,2.5 2,4.5 4.3,4.5 z"
       id="path489"
       inkscape:connector-curvature="0"
       style="fill:#f4efef" /><path
       d="m 1001.9,944.4 20.1,0 c 2.4,0 4.3,-2 4.3,-4.5 l 0,-20.1 c 0,-2.5 -1.9,-4.5 -4.3,-4.5 l -20.1,0 c -2.4,0 -4.3,2 -4.3,4.5 l 0,20.1 c 0,2.5 1.9,4.5 4.3,4.5 z"
       id="path491"
       inkscape:connector-curvature="0"
       style="fill:#f4efef" /><path
       d="m 1042.4,944.4 20.1,0 c 2.4,0 4.3,-2 4.3,-4.5 l 0,-20.1 c 0,-2.5 -1.9,-4.5 -4.3,-4.5 l -20.1,0 c -2.4,0 -4.3,2 -4.3,4.5 l 0,20.1 c 0,2.5 1.9,4.5 4.3,4.5 z"
       id="path493"
       inkscape:connector-curvature="0"
       style="fill:#f4efef" /><path
       d="m 1081.8,944.4 20.1,0 c 2.4,0 4.3,-2 4.3,-4.5 l 0,-20.1 c 0,-2.5 -1.9,-4.5 -4.3,-4.5 l -20.1,0 c -2.4,0 -4.3,2 -4.3,4.5 l 0,20.1 c -0.1,2.5 1.9,4.5 4.3,4.5 z"
       id="path495"
       inkscape:connector-curvature="0"
       style="fill:#f4efef" /><path
       d="m 1158.8,944.4 20.1,0 c 2.4,0 4.3,-2 4.3,-4.5 l 0,-20.1 c 0,-2.5 -1.9,-4.5 -4.3,-4.5 l -20.1,0 c -2.4,0 -4.3,2 -4.3,4.5 l 0,20.1 c 0,2.5 1.9,4.5 4.3,4.5 z"
       id="path497"
       inkscape:connector-curvature="0"
       style="fill:#f4efef" /><path
       d="m 1119.8,944.4 20.1,0 c 2.4,0 4.3,-2 4.3,-4.5 l 0,-20.1 c 0,-2.5 -1.9,-4.5 -4.3,-4.5 l -20.1,0 c -2.4,0 -4.3,2 -4.3,4.5 l 0,20.1 c 0,2.5 2,4.5 4.3,4.5 z"
       id="path499"
       inkscape:connector-curvature="0"
       style="fill:#f4efef" /><path
       d="m 704.3,944.4 45.1,0 c 1.8,0 3.3,-1.4 3.3,-3 l 0,-21.9 c 0,-1.7 -1.5,-3 -3.3,-3 l -45.1,0 c -1.8,0 -3.3,1.4 -3.3,3 l 0,21.9 c 0,1.6 1.5,3 3.3,3 z"
       id="path501"
       inkscape:connector-curvature="0"
       style="fill:#f4efef" /><path
       d="m 1190.7,983.1 -20.1,0 c -2.4,0 -4.3,-2 -4.3,-4.5 l 0,-20.1 c 0,-2.5 1.9,-4.5 4.3,-4.5 l 20.1,0 c 2.4,0 4.3,2 4.3,4.5 l 0,20.1 c 0,2.5 -1.9,4.5 -4.3,4.5 z"
       id="path503"
       inkscape:connector-curvature="0"
       style="fill:#f4efef" /><path
       d="m 1151.4,983.1 -20.1,0 c -2.4,0 -4.3,-2 -4.3,-4.5 l 0,-20.1 c 0,-2.5 1.9,-4.5 4.3,-4.5 l 20.1,0 c 2.4,0 4.3,2 4.3,4.5 l 0,20.1 c 0,2.5 -1.9,4.5 -4.3,4.5 z"
       id="path505"
       inkscape:connector-curvature="0"
       style="fill:#f4efef" /><path
       d="m 1112.1,983.1 -20.1,0 c -2.4,0 -4.3,-2 -4.3,-4.5 l 0,-20.1 c 0,-2.5 1.9,-4.5 4.3,-4.5 l 20.1,0 c 2.4,0 4.3,2 4.3,4.5 l 0,20.1 c 0,2.5 -1.9,4.5 -4.3,4.5 z"
       id="path507"
       inkscape:connector-curvature="0"
       style="fill:#f4efef" /><path
       d="m 1074.8,983.1 -20.1,0 c -2.4,0 -4.3,-2 -4.3,-4.5 l 0,-20.1 c 0,-2.5 1.9,-4.5 4.3,-4.5 l 20.1,0 c 2.4,0 4.3,2 4.3,4.5 l 0,20.1 c 0,2.5 -1.9,4.5 -4.3,4.5 z"
       id="path509"
       inkscape:connector-curvature="0"
       style="fill:#f4efef" /><path
       d="m 1035.9,983.1 -20.1,0 c -2.4,0 -4.3,-2 -4.3,-4.5 l 0,-20.1 c 0,-2.5 1.9,-4.5 4.3,-4.5 l 20.1,0 c 2.4,0 4.3,2 4.3,4.5 l 0,20.1 c 0,2.5 -1.9,4.5 -4.3,4.5 z"
       id="path511"
       inkscape:connector-curvature="0"
       style="fill:#f4efef" /><path
       d="m 996.6,983.1 -20.1,0 c -2.4,0 -4.3,-2 -4.3,-4.5 l 0,-20.1 c 0,-2.5 1.9,-4.5 4.3,-4.5 l 20.1,0 c 2.4,0 4.3,2 4.3,4.5 l 0,20.1 c 0,2.5 -2,4.5 -4.3,4.5 z"
       id="path513"
       inkscape:connector-curvature="0"
       style="fill:#f4efef" /><path
       d="m 956.8,983.1 -20.1,0 c -2.4,0 -4.3,-2 -4.3,-4.5 l 0,-20.1 c 0,-2.5 1.9,-4.5 4.3,-4.5 l 20.1,0 c 2.4,0 4.3,2 4.3,4.5 l 0,20.1 c 0,2.5 -1.9,4.5 -4.3,4.5 z"
       id="path515"
       inkscape:connector-curvature="0"
       style="fill:#f4efef" /><path
       d="m 916.3,983.1 -20.1,0 c -2.4,0 -4.3,-2 -4.3,-4.5 l 0,-20.1 c 0,-2.5 1.9,-4.5 4.3,-4.5 l 20.1,0 c 2.4,0 4.3,2 4.3,4.5 l 0,20.1 c 0,2.5 -2,4.5 -4.3,4.5 z"
       id="path517"
       inkscape:connector-curvature="0"
       style="fill:#f4efef" /><path
       d="m 876.9,983.1 -20.1,0 c -2.4,0 -4.3,-2 -4.3,-4.5 l 0,-20.1 c 0,-2.5 1.9,-4.5 4.3,-4.5 l 20.1,0 c 2.4,0 4.3,2 4.3,4.5 l 0,20.1 c 0,2.5 -1.9,4.5 -4.3,4.5 z"
       id="path519"
       inkscape:connector-curvature="0"
       style="fill:#f4efef" /><path
       d="m 799.9,983.1 -20.1,0 c -2.4,0 -4.3,-2 -4.3,-4.5 l 0,-20.1 c 0,-2.5 1.9,-4.5 4.3,-4.5 l 20.1,0 c 2.4,0 4.3,2 4.3,4.5 l 0,20.1 c 0,2.5 -1.9,4.5 -4.3,4.5 z"
       id="path521"
       inkscape:connector-curvature="0"
       style="fill:#f4efef" /><path
       d="m 838.8,983.1 -20.1,0 c -2.4,0 -4.3,-2 -4.3,-4.5 l 0,-20.1 c 0,-2.5 1.9,-4.5 4.3,-4.5 l 20.1,0 c 2.4,0 4.3,2 4.3,4.5 l 0,20.1 c 0,2.5 -1.9,4.5 -4.3,4.5 z"
       id="path523"
       inkscape:connector-curvature="0"
       style="fill:#f4efef" /><path
       d="m 1254.4,983.1 -45.1,0 c -1.8,0 -3.3,-1.4 -3.3,-3 l 0,-21.9 c 0,-1.7 1.5,-3 3.3,-3 l 45.1,0 c 1.8,0 3.3,1.4 3.3,3 l 0,21.9 c 0,1.7 -1.5,3 -3.3,3 z"
       id="path525"
       inkscape:connector-curvature="0"
       style="fill:#f4efef" /><path
       d="m 705.2,983.1 57.6,0 c 2.3,0 4.2,-1.4 4.2,-3.1 l 0,-22.8 c 0,-1.7 -1.9,-3.1 -4.2,-3.1 l -57.6,0 c -2.3,0 -4.2,1.4 -4.2,3.1 l 0,22.8 c 0,1.7 1.9,3.1 4.2,3.1 z"
       id="path527"
       inkscape:connector-curvature="0"
       style="fill:#f4efef" /><path
       d="m 1164.5,1021.5 -20.1,0 c -2.4,0 -4.3,-2 -4.3,-4.5 l 0,-20.1 c 0,-2.5 1.9,-4.5 4.3,-4.5 l 20.1,0 c 2.4,0 4.3,2 4.3,4.5 l 0,20.1 c 0,2.5 -1.9,4.5 -4.3,4.5 z"
       id="path529"
       inkscape:connector-curvature="0"
       style="fill:#f4efef" /><path
       d="m 1125.2,1021.5 -20.1,0 c -2.4,0 -4.3,-2 -4.3,-4.5 l 0,-20.1 c 0,-2.5 1.9,-4.5 4.3,-4.5 l 20.1,0 c 2.4,0 4.3,2 4.3,4.5 l 0,20.1 c 0,2.5 -1.9,4.5 -4.3,4.5 z"
       id="path531"
       inkscape:connector-curvature="0"
       style="fill:#f4efef" /><path
       d="m 1087.9,1021.5 -20.1,0 c -2.4,0 -4.3,-2 -4.3,-4.5 l 0,-20.1 c 0,-2.5 1.9,-4.5 4.3,-4.5 l 20.1,0 c 2.4,0 4.3,2 4.3,4.5 l 0,20.1 c 0,2.5 -1.9,4.5 -4.3,4.5 z"
       id="path533"
       inkscape:connector-curvature="0"
       style="fill:#f4efef" /><path
       d="m 1049,1021.5 -20.1,0 c -2.4,0 -4.3,-2 -4.3,-4.5 l 0,-20.1 c 0,-2.5 1.9,-4.5 4.3,-4.5 l 20.1,0 c 2.4,0 4.3,2 4.3,4.5 l 0,20.1 c 0,2.5 -1.9,4.5 -4.3,4.5 z"
       id="path535"
       inkscape:connector-curvature="0"
       style="fill:#f4efef" /><path
       d="m 1009.7,1021.5 -20.1,0 c -2.4,0 -4.3,-2 -4.3,-4.5 l 0,-20.1 c 0,-2.5 1.9,-4.5 4.3,-4.5 l 20.1,0 c 2.4,0 4.3,2 4.3,4.5 l 0,20.1 c 0,2.5 -2,4.5 -4.3,4.5 z"
       id="path537"
       inkscape:connector-curvature="0"
       style="fill:#f4efef" /><path
       d="m 969.9,1021.5 -20.1,0 c -2.4,0 -4.3,-2 -4.3,-4.5 l 0,-20.1 c 0,-2.5 1.9,-4.5 4.3,-4.5 l 20.1,0 c 2.4,0 4.3,2 4.3,4.5 l 0,20.1 c 0,2.5 -1.9,4.5 -4.3,4.5 z"
       id="path539"
       inkscape:connector-curvature="0"
       style="fill:#f4efef" /><path
       d="m 929.4,1021.5 -20.1,0 c -2.4,0 -4.3,-2 -4.3,-4.5 l 0,-20.1 c 0,-2.5 1.9,-4.5 4.3,-4.5 l 20.1,0 c 2.4,0 4.3,2 4.3,4.5 l 0,20.1 c 0,2.5 -2,4.5 -4.3,4.5 z"
       id="path541"
       inkscape:connector-curvature="0"
       style="fill:#f4efef" /><path
       d="m 890,1021.5 -20,0 c -2.4,0 -4.3,-2 -4.3,-4.5 l 0,-20.1 c 0,-2.5 1.9,-4.5 4.3,-4.5 l 20,0 c 2.4,0 4.3,2 4.3,4.5 l 0,20.1 c 0,2.5 -1.9,4.5 -4.3,4.5 z"
       id="path543"
       inkscape:connector-curvature="0"
       style="fill:#f4efef" /><path
       d="m 813,1021.5 -20.1,0 c -2.4,0 -4.3,-2 -4.3,-4.5 l 0,-20.1 c 0,-2.5 1.9,-4.5 4.3,-4.5 l 20.1,0 c 2.4,0 4.3,2 4.3,4.5 l 0,20.1 c 0,2.5 -1.9,4.5 -4.3,4.5 z"
       id="path545"
       inkscape:connector-curvature="0"
       style="fill:#f4efef" /><path
       d="m 851.9,1021.5 -20.1,0 c -2.4,0 -4.3,-2 -4.3,-4.5 l 0,-20.1 c 0,-2.5 1.9,-4.5 4.3,-4.5 l 20.1,0 c 2.4,0 4.3,2 4.3,4.5 l 0,20.1 c 0,2.5 -1.9,4.5 -4.3,4.5 z"
       id="path547"
       inkscape:connector-curvature="0"
       style="fill:#f4efef" /><path
       d="m 706,1021.5 69.4,0 c 2.8,0 5,-1.4 5,-3.1 l 0,-22.8 c 0,-1.7 -2.3,-3.1 -5,-3.1 l -69.4,0 c -2.8,0 -5,1.4 -5,3.1 l 0,22.8 c 0,1.7 2.2,3.1 5,3.1 z"
       id="path549"
       inkscape:connector-curvature="0"
       style="fill:#f4efef" /><path
       d="m 1182.1,1021.5 72.8,0 c 2.9,0 5.3,-1.4 5.3,-3.1 l 0,-22.8 c 0,-1.7 -2.4,-3.1 -5.3,-3.1 l -72.8,0 c -2.9,0 -5.3,1.4 -5.3,3.1 l 0,22.8 c 0,1.7 2.4,3.1 5.3,3.1 z"
       id="path551"
       inkscape:connector-curvature="0"
       style="fill:#f4efef" /><path
       d="m 1056,1066.5 -185.2,0 c -2.2,0 -3.9,-1.8 -3.9,-4.1 l 0,-26 c 0,-2.2 1.7,-4.1 3.9,-4.1 l 185.2,0 c 2.2,0 3.9,1.8 3.9,4.1 l 0,26 c 0,2.3 -1.8,4.1 -3.9,4.1 z"
       id="path553"
       inkscape:connector-curvature="0"
       style="fill:#f4efef" /><path
       d="m 1258.1,1066.2 -29.6,0 c -1.1,0 -2.1,-0.7 -2.1,-1.7 l 0,-13.4 c 0,-0.9 0.9,-1.7 2.1,-1.7 l 29.6,0 c 1.1,0 2.1,0.7 2.1,1.7 l 0,13.4 c -0.1,0.9 -1,1.7 -2.1,1.7 z"
       id="path555"
       inkscape:connector-curvature="0"
       style="fill:#f4efef" /><path
       d="m 1183.6,1066.2 -29.6,0 c -1.1,0 -2.1,-0.7 -2.1,-1.7 l 0,-13.4 c 0,-0.9 0.9,-1.7 2.1,-1.7 l 29.6,0 c 1.1,0 2.1,0.7 2.1,1.7 l 0,13.4 c 0,0.9 -1,1.7 -2.1,1.7 z"
       id="path557"
       inkscape:connector-curvature="0"
       style="fill:#f4efef" /><path
       d="m 769.8,1067.4 -25.1,0 c -2.2,0 -3.9,-1.8 -3.9,-4.1 l 0,-27.7 c 0,-2.3 1.8,-4.1 3.9,-4.1 l 25.1,0 c 2.2,0 3.9,1.8 3.9,4.1 l 0,27.7 c 0,2.3 -1.8,4.1 -3.9,4.1 z"
       id="path559"
       inkscape:connector-curvature="0"
       style="fill:#f4efef" /><path
       d="m 809.5,1067.4 -25.1,0 c -2.2,0 -3.9,-1.8 -3.9,-4.1 l 0,-27.7 c 0,-2.3 1.8,-4.1 3.9,-4.1 l 25.1,0 c 2.2,0 3.9,1.8 3.9,4.1 l 0,27.7 c 0.1,2.3 -1.7,4.1 -3.9,4.1 z"
       id="path561"
       inkscape:connector-curvature="0"
       style="fill:#f4efef" /><path
       d="m 1142,1067.4 -25.1,0 c -2.2,0 -3.9,-1.8 -3.9,-4.1 l 0,-27.7 c 0,-2.3 1.8,-4.1 3.9,-4.1 l 25.1,0 c 2.2,0 3.9,1.8 3.9,4.1 l 0,27.7 c 0.1,2.3 -1.7,4.1 -3.9,4.1 z"
       id="path563"
       inkscape:connector-curvature="0"
       style="fill:#f4efef" /><path
       d="m 730,1067.4 -25.1,0 c -2.2,0 -3.9,-1.8 -3.9,-4.1 l 0,-27.7 c 0,-2.3 1.8,-4.1 3.9,-4.1 l 25.1,0 c 2.2,0 3.9,1.8 3.9,4.1 l 0,27.7 c 0.1,2.3 -1.7,4.1 -3.9,4.1 z"
       id="path565"
       inkscape:connector-curvature="0"
       style="fill:#f4efef" /><path
       d="m 1218.6,1067.4 -25.1,0 c -2.2,0 -3.9,-1.8 -3.9,-4.1 l 0,-27.7 c 0,-2.3 1.8,-4.1 3.9,-4.1 l 25.1,0 c 2.2,0 3.9,1.8 3.9,4.1 l 0,27.7 c 0.1,2.3 -1.7,4.1 -3.9,4.1 z"
       id="path567"
       inkscape:connector-curvature="0"
       style="fill:#f4efef" /><path
       d="m 854.8,1067.4 -30.1,0 c -2.6,0 -4.7,-1.8 -4.7,-4.1 l 0,-27.7 c 0,-2.3 2.1,-4.1 4.7,-4.1 l 30.1,0 c 2.6,0 4.7,1.8 4.7,4.1 l 0,27.7 c 0,2.3 -2.1,4.1 -4.7,4.1 z"
       id="path569"
       inkscape:connector-curvature="0"
       style="fill:#f4efef" /><path
       d="m 1100.9,1067.4 -30.1,0 c -2.6,0 -4.7,-1.8 -4.7,-4.1 l 0,-27.7 c 0,-2.3 2.1,-4.1 4.7,-4.1 l 30.1,0 c 2.6,0 4.7,1.8 4.7,4.1 l 0,27.7 c 0.1,2.3 -2.1,4.1 -4.7,4.1 z"
       id="path571"
       inkscape:connector-curvature="0"
       style="fill:#f4efef" /></g><g
     id="moleskine_1_"
     transform="matrix(0.8660254,-0.5,0.5,0.8660254,-1182.9985,309.6674)"><path
       d="m 1199.5,1515.1 -454.3,0 c -7.8,0 -14.1,-6.6 -14.1,-14.8 l 0,-357.3 c 0,-8.2 6.3,-14.8 14.1,-14.8 l 454.2,0 c 7.8,0 14.1,6.6 14.1,14.8 l 0,357.3 c 0.1,8.2 -6.2,14.8 -14,14.8 z"
       id="path1042"
       inkscape:connector-curvature="0"
       style="opacity:0.18999999" /><path
       d="m 1209.2,1510.2 -450.5,0 c -7.7,0 -14,-6.5 -14,-14.6 l 0,-352.9 c 0,-8.1 6.3,-14.6 14,-14.6 l 450.5,0 c 7.7,0 14,6.5 14,14.6 l 0,352.9 c 0,8.1 -6.3,14.6 -14,14.6 z"
       id="path1044"
       inkscape:connector-curvature="0" /><path
       d="m 1197.9,1500.7 -428,0 c -7.4,0 -13.3,-6.2 -13.3,-13.9 l 0,-335.2 c 0,-7.7 6,-13.9 13.3,-13.9 l 428,0 c 7.4,0 13.3,6.2 13.3,13.9 l 0,335.2 c 0,7.7 -5.9,13.9 -13.3,13.9 z"
       id="path1046"
       inkscape:connector-curvature="0"
       style="fill:#dddad7" /><g
       id="g1048"><path
         d="m 769.9,1137.7 c -7.4,0 -13.3,6.2 -13.3,13.9 l 0,335.2 c 0,7.7 6,13.9 13.3,13.9 l 214,0 0,-362.9 -214,0 z"
         id="path1050"
         inkscape:connector-curvature="0"
         style="fill:#e9e8e7" /></g><rect
       x="983.90002"
       y="1137.7"
       width="0"
       height="362.89999"
       id="rect1052"
       style="fill:#828282" /><path
       d="m 1046.1,1137.7 c 13.5,13.2 30.6,37.3 28.2,110.9 0,0 0.1,121 -148.1,231.7 -0.8,0.6 -1.9,0.5 -2.6,-0.1 l -4.4,-4 c -0.8,-0.7 -0.7,-2 0.1,-2.6 4.6,-3.3 19.7,-14.7 59.5,-49.7 13.3,-11.7 26,-26.5 42,-48.2 12.4,-16.7 24.4,-36 35.3,-63.3 8.5,-21.3 11.1,-22.2 15.6,-55.2 0,0 6.2,-60.1 -4.7,-93.6 0,0 -1.1,-8.6 -14.5,-25.9 0,0 -0.4,-0.3 -2.2,0 -1.7,0.3 -4.2,0 -4.2,0 z"
       id="path1054"
       inkscape:connector-curvature="0"
       style="fill:#bebcb9" /><path
       d="m 981.3,1137.1 5.7,0 c 0,0 1.6,-5.1 5.6,-9.8 7.9,-9.5 21.9,-9.9 30.7,-1.3 13.5,13.2 40.7,49.1 38.4,122.7 0,0 0.1,121 -148.1,231.7 -0.8,0.6 -1.9,0.5 -2.6,-0.1 l -4.4,-4 c -0.8,-0.7 -0.7,-2 0.1,-2.6 4.6,-3.3 19.7,-14.7 59.5,-49.7 13.3,-11.7 26,-26.5 42,-48.2 12.4,-16.7 24.4,-36 35.3,-63.3 8.5,-21.3 11.1,-22.2 15.6,-55.2 0,0 6.2,-60.1 -4.7,-93.6 0,0 -7.5,-20.6 -19.3,-35 -7.7,-9.4 -19.4,-14.3 -31.1,-12.6 -4.4,0.7 -9,2.2 -13.5,5.4 0.1,-0.1 -7.7,6.4 -9.2,15.6 z"
       id="path1056"
       inkscape:connector-curvature="0"
       style="fill:#372930" /></g><g
     id="handle_2_"
     transform="matrix(0.5,-0.8660254,0.8660254,0.5,-1453.5418,1511.4553)"><rect
       x="1391"
       y="1172.5"
       width="26.1"
       height="251.7"
       id="rect1168"
       style="opacity:0.2" /><path
       d="m 1410.7,1153.6 -13.5,0 c -0.9,0 -1.7,0.8 -1.7,1.8 l 0,15.5 17.1,0 0,-15.3 c 0,-1.1 -0.8,-2 -1.9,-2 z"
       id="path1170"
       inkscape:connector-curvature="0"
       style="opacity:0.2" /><path
       d="m 1405.6,1477.9 -3,0 0,11.5 c 0,0.2 0.1,0.3 0.1,0.3 l 2.9,0 0,-11.8 z"
       id="path1172"
       inkscape:connector-curvature="0"
       style="opacity:0.2" /><path
       d="m 1391,1424.1 c 0,0 -2.2,21.9 8.4,55.6 0.1,0.3 0.4,0.5 0.7,0.5 l 7.8,0 c 0.3,0 0.6,-0.2 0.8,-0.6 1.4,-4.4 10.4,-33.1 8.5,-55.5 l -26.2,0 z"
       id="path1174"
       inkscape:connector-curvature="0"
       style="opacity:0.2" /><path
       d="m 1420.4,1180.3 -7.8,0 0,48.9 7.3,0 c 0.9,0 1.7,-0.8 1.7,-1.8 l 0,-45.8 c 0,-0.7 -0.5,-1.3 -1.2,-1.3 z"
       id="path1176"
       inkscape:connector-curvature="0"
       style="fill:#191937" /><rect
       x="1395.3"
       y="1172.9"
       width="26.1"
       height="250.5"
       id="rect1178"
       style="fill:#181a1c" /><rect
       x="1416.5"
       y="1172.9"
       width="5"
       height="250.5"
       id="rect1180"
       style="fill:#020202" /><rect
       x="1397.5"
       y="1172.9"
       width="4.4000001"
       height="250.5"
       id="rect1182"
       style="fill:#3d3d3d" /><path
       d="m 1415.1,1154.1 -13.5,0 c -0.9,0 -1.7,0.8 -1.7,1.8 l 0,15.4 17.1,0 0,-15.2 c 0,-1.1 -0.9,-2 -1.9,-2 z"
       id="path1184"
       inkscape:connector-curvature="0"
       style="fill:#3d3d3d" /><rect
       x="1401.9"
       y="1154.3"
       width="2"
       height="16.9"
       id="rect1186"
       style="fill:#676767" /><path
       d="m 1415.4,1154.1 0,0 0,17.2 2.1,0 0,-14.8 c 0,-1.3 -1,-2.4 -2.1,-2.4 z"
       id="path1188"
       inkscape:connector-curvature="0"
       style="fill:#181a1c" /><rect
       x="1399.8"
       y="1167.7"
       width="17.1"
       height="3.5999999"
       id="rect1190"
       style="fill:#181a1c" /><rect
       x="1395.3"
       y="1169.7"
       width="26.1"
       height="3.2"
       id="rect1192"
       style="fill:#3d3d3d" /><rect
       x="1395.3"
       y="1227.9"
       width="26.1"
       height="0.60000002"
       id="rect1194" /><rect
       x="1408.1"
       y="1478.7"
       width="0.80000001"
       height="10.4"
       id="rect1196"
       style="fill:#095c87" /><path
       d="m 1409.9,1476.7 -3,0 0,7.6 c 0,0.1 0.1,0.2 0.1,0.2 l 2.9,0 0,-7.8 z"
       id="path1198"
       inkscape:connector-curvature="0"
       style="fill:#676767" /><rect
       x="1407.2"
       y="1478.7"
       width="0.60000002"
       height="5.6999998"
       id="rect1200"
       style="fill:#8b8d8d" /><path
       d="m 1410,1479.2 -1,0 0,5.2 0.7,0 c 0.1,0 0.2,-0.2 0.2,-0.4 l 0,-4.8 z"
       id="path1202"
       inkscape:connector-curvature="0"
       style="fill:#49494a" /><path
       d="m 1400.6,1463.1 c 0,0 -4,-21.3 -3.6,-34.3 0,0 0.2,-2.6 1.8,-3 0,0 1.5,31.3 1.8,37.3 z"
       id="path1204"
       inkscape:connector-curvature="0"
       style="fill:#636463" /><path
       d="m 1395.3,1423.4 c 0,0 -2.2,21.8 8.4,55.3 0.1,0.3 0.4,0.5 0.7,0.5 l 7.8,0 c 0.3,0 0.6,-0.2 0.8,-0.6 1.4,-4.3 10.4,-32.9 8.5,-55.3 l -26.2,0 z"
       id="path1206"
       inkscape:connector-curvature="0"
       style="fill:#181a1c" /><path
       d="m 1397.1,1428.8 c -0.1,7.2 0.4,25.5 7.4,50.3 0,0.1 0.1,0.1 0.2,0.1 l 7.3,0 c 0.1,0 0.1,0 0.2,-0.1 0.6,-2 8.8,-30 7.5,-52.4 0,-0.8 -0.7,-1.4 -1.4,-1.4 l -17.8,0 c -1.9,0.1 -3.4,1.6 -3.4,3.5 z"
       id="path1208"
       inkscape:connector-curvature="0"
       style="fill:#676767" /><path
       d="m 1408.4,1469.5 c 0,0 3.1,1 7.1,-3.6 -1.6,7.3 -3.1,12.4 -3.3,13.2 0,0.1 -0.1,0.1 -0.2,0.1 l -7.3,0 c -0.1,0 -0.1,-0.1 -0.2,-0.1 -1.6,-5.7 -2.9,-11.1 -3.9,-16.1 2.2,3.8 4.9,6.8 7.8,6.5 z"
       id="path1210"
       inkscape:connector-curvature="0"
       style="fill:#3d3d3d" /><path
       d="m 1417.2,1179.9 -16.6,0 c -1,0 -1.8,0.8 -1.8,1.8 l 0,88.2 c 0,1 0.8,1.8 1.8,1.8 l 16.6,0 c 1,0 1.8,-0.8 1.8,-1.8 l 0,-88.2 c 0,-1 -0.8,-1.8 -1.8,-1.8 z"
       id="path1212"
       inkscape:connector-curvature="0"
       style="fill:#020202" /><path
       d="m 1416.4,1180.9 -15.1,0 c -0.9,0 -1.7,0.8 -1.7,1.7 l 0,86.1 c 0,1 0.7,1.7 1.7,1.7 l 15.1,0 c 0.9,0 1.7,-0.8 1.7,-1.7 l 0,-86.1 c 0,-0.9 -0.8,-1.7 -1.7,-1.7 z"
       id="path1214"
       inkscape:connector-curvature="0"
       style="fill:#232627" /><path
       d="m 1424.8,1180.7 -7.8,0 0,48.7 7.3,0 c 0.9,0 1.7,-0.8 1.7,-1.8 l 0,-45.6 c 0,-0.7 -0.6,-1.3 -1.2,-1.3 z"
       id="path1216"
       inkscape:connector-curvature="0"
       style="fill:#232627" /><path
       d="m 1400.1,1235.7 1.3,32.1 c 0,0.8 0.6,1.5 1.4,1.5 l 15.6,1.2 -16.3,0 c -1.5,0 -2.7,-1.3 -2.7,-2.9 l 0.7,-31.9 z"
       id="path1218"
       inkscape:connector-curvature="0"
       style="fill:#676767" /><path
       d="m 1426,1227.6 -7,0 0,1.8 5.7,0 c 0.7,0 1.3,-0.6 1.3,-1.4 l 0,-0.4 z"
       id="path1220"
       inkscape:connector-curvature="0"
       style="fill:#676767" /></g><g
     id="pencil"
     transform="matrix(0.8660254,0.5,-0.5,0.8660254,-185.44321,-631.8122)"><rect
       x="1489.8"
       y="1183"
       width="27.700001"
       height="250.5"
       id="rect1223"
       style="opacity:0.2" /><path
       d="m 1513.5,1452.4 -16.3,0 c -1.1,0 -2,-0.8 -2,-1.8 l 0,-15.4 20.6,0 0,15.2 c 0,1.1 -1,2 -2.3,2 z"
       id="path1225"
       inkscape:connector-curvature="0"
       style="opacity:0.2" /><rect
       x="1489.8"
       y="1433.5"
       width="31.4"
       height="3.2"
       id="rect1227"
       style="opacity:0.2" /><rect
       x="1505.1"
       y="1117.4"
       width="0.89999998"
       height="10.4"
       id="rect1229"
       style="opacity:0.2" /><path
       d="m 1507.5,1127.2 -1.2,0 0,-5.2 0.9,0 c 0.2,0 0.3,0.2 0.3,0.4 l 0,4.8 z"
       id="path1231"
       inkscape:connector-curvature="0"
       style="fill:#191937" /><path
       d="m 1489.8,1183 c 0,0 -2.6,-21.8 10.1,-55.3 0.1,-0.3 0.4,-0.5 0.8,-0.5 l 9.4,0 c 0.4,0 0.8,0.2 0.9,0.6 1.7,4.3 12.5,32.9 10.2,55.3 l -31.4,0 z"
       id="path1233"
       inkscape:connector-curvature="0"
       style="opacity:0.2" /><path
       d="m 1525.2,1425.8 -9.3,0 0,-48.7 8.7,0 c 1.1,0 2.1,0.8 2.1,1.8 l 0,45.6 c -0.1,0.7 -0.7,1.3 -1.5,1.3 z"
       id="path1235"
       inkscape:connector-curvature="0"
       style="fill:#191937" /><rect
       x="1496.5"
       y="1181.3"
       width="26.1"
       height="250.5"
       id="rect1237"
       style="fill:#f4f5f5" /><rect
       x="1517.7"
       y="1181.3"
       width="5"
       height="250.5"
       id="rect1239"
       style="fill:#cbcac8" /><rect
       x="1498.7"
       y="1181.3"
       width="4.4000001"
       height="250.5"
       id="rect1241"
       style="fill:#ffffff" /><path
       d="m 1516.3,1450.6 -13.5,0 c -0.9,0 -1.7,-0.8 -1.7,-1.8 l 0,-15.4 17.1,0 0,15.2 c -0.1,1.1 -0.9,2 -1.9,2 z"
       id="path1243"
       inkscape:connector-curvature="0"
       style="fill:#4d4c4d" /><rect
       x="1503.1"
       y="1433.6"
       width="2"
       height="16.9"
       id="rect1245"
       style="fill:#676665" /><path
       d="m 1516.6,1450.6 0,0 0,-17.2 2.1,0 0,14.8 c 0,1.3 -1,2.4 -2.1,2.4 z"
       id="path1247"
       inkscape:connector-curvature="0"
       style="fill:#444444" /><rect
       x="1501"
       y="1433.4"
       width="17.1"
       height="3.5999999"
       id="rect1249"
       style="fill:#2d2d2d" /><rect
       x="1496.5"
       y="1431.8"
       width="26.1"
       height="3.2"
       id="rect1251"
       style="fill:#444444" /><rect
       x="1496.5"
       y="1376.2"
       width="26.1"
       height="0.60000002"
       id="rect1253"
       style="fill:#444444" /><rect
       x="1509.2"
       y="1115.7"
       width="0.80000001"
       height="10.4"
       id="rect1255"
       style="fill:#3a3a3a" /><path
       d="m 1511.1,1128.1 -3,0 0,-7.6 c 0,-0.1 0.1,-0.2 0.1,-0.2 l 2.9,0 0,7.8 z"
       id="path1257"
       inkscape:connector-curvature="0"
       style="fill:#dcdbd8" /><rect
       x="1508.3"
       y="1120.3"
       width="0.60000002"
       height="5.6999998"
       id="rect1259"
       style="fill:#fffaf6" /><path
       d="m 1511.2,1125.5 -1,0 0,-5.2 0.7,0 c 0.1,0 0.2,0.2 0.2,0.4 l 0,4.8 z"
       id="path1261"
       inkscape:connector-curvature="0"
       style="fill:#b6b3b2" /><path
       d="m 1501.8,1141.7 c 0,0 -4,21.3 -3.6,34.3 0,0 0.2,2.6 1.8,3 0,-0.1 1.5,-31.4 1.8,-37.3 z"
       id="path1263"
       inkscape:connector-curvature="0"
       style="fill:#636463" /><path
       d="m 1496.5,1181.3 c 0,0 -2.2,-21.8 8.4,-55.3 0.1,-0.3 0.4,-0.5 0.7,-0.5 l 7.8,0 c 0.3,0 0.6,0.2 0.8,0.6 1.4,4.3 10.4,32.9 8.5,55.3 l -26.2,0 z"
       id="path1265"
       inkscape:connector-curvature="0"
       style="fill:#2d2d2d" /><path
       d="m 1498.2,1175.9 c -0.1,-7.2 0.4,-25.5 7.4,-50.3 0,-0.1 0.1,-0.1 0.2,-0.1 l 7.3,0 c 0.1,0 0.1,0 0.2,0.1 0.6,2 8.8,30 7.5,52.4 0,0.8 -0.7,1.4 -1.4,1.4 l -17.8,0 c -1.8,0 -3.3,-1.6 -3.4,-3.5 z"
       id="path1267"
       inkscape:connector-curvature="0"
       style="fill:#4d4c4d" /><path
       d="m 1509.6,1135.2 c 0,0 3.1,-1 7.1,3.6 -1.6,-7.3 -3.1,-12.4 -3.3,-13.2 0,-0.1 -0.1,-0.1 -0.2,-0.1 l -7.3,0 c -0.1,0 -0.1,0.1 -0.2,0.1 -1.6,5.7 -2.9,11.1 -3.9,16.1 2.2,-3.8 4.8,-6.8 7.8,-6.5 z"
       id="path1269"
       inkscape:connector-curvature="0"
       style="fill:#3a3a3a" /><path
       d="m 1518.3,1424.9 -16.6,0 c -1,0 -1.8,-0.8 -1.8,-1.8 l 0,-88.2 c 0,-1 0.8,-1.8 1.8,-1.8 l 16.6,0 c 1,0 1.8,0.8 1.8,1.8 l 0,88.2 c 0.1,1 -0.7,1.8 -1.8,1.8 z"
       id="path1271"
       inkscape:connector-curvature="0"
       style="fill:#9e9d9e" /><path
       d="m 1518.5,1424 -15.1,0 c -0.9,0 -1.7,-0.8 -1.7,-1.7 l 0,-86.1 c 0,-1 0.7,-1.7 1.7,-1.7 l 15.1,0 c 0.9,0 1.7,0.8 1.7,1.7 l 0,86.1 c 0,0.9 -0.8,1.7 -1.7,1.7 z"
       id="path1273"
       inkscape:connector-curvature="0"
       style="fill:#e7e7e7" /><path
       d="m 1525.9,1424 -7.8,0 0,-48.7 7.3,0 c 0.9,0 1.7,0.8 1.7,1.8 l 0,45.6 c 0,0.8 -0.5,1.3 -1.2,1.3 z"
       id="path1275"
       inkscape:connector-curvature="0"
       style="fill:#e7e7e7" /><path
       d="m 1501.8,1369.3 1.3,-32.1 c 0,-0.8 0.6,-1.5 1.4,-1.5 l 15.6,-1.2 -16.3,0 c -1.5,0 -2.7,1.3 -2.7,2.9 l 0.7,31.9 z"
       id="path1277"
       inkscape:connector-curvature="0"
       style="fill:#ffffff" /><path
       d="m 1527.1,1377.2 -7,0 0,-1.8 5.7,0 c 0.7,0 1.3,0.6 1.3,1.4 l 0,0.4 z"
       id="path1279"
       inkscape:connector-curvature="0"
       style="fill:#ffffff" /></g></svg>